_Griffith_Gothic-Ultra_Italic_WebTT.ufo
<glyph name="exclam" format="1">
  <advance width="626.688"/>
  <unicode hex="0021"/>
  <outline>
    <contour>
      <point x="231" y="416" type="qcurve" smooth="yes"/>
      <point x="322.791044776" y="416.0"/>
      <point x="446.0" y="292.791044776"/>
      <point x="446" y="201" type="qcurve" smooth="yes"/>
      <point x="446.0" y="109.208955224"/>
      <point x="322.791044776" y="-14.0"/>
      <point x="231" y="-14" type="qcurve" smooth="yes"/>
      <point x="139.955223881" y="-14.0"/>
      <point x="16.0" y="109.208955224"/>
      <point x="16" y="201" type="qcurve" smooth="yes"/>
      <point x="16.0" y="292.791044776"/>
      <point x="139.955223881" y="416.0"/>
    </contour>
    <contour>
      <point x="301" y="1475" type="line"/>
      <point x="797" y="1475" type="line"/>
      <point x="424" y="518" type="line"/>
      <point x="174" y="518" type="line"/>
    </contour>
  </outline>
</glyph>
<glyph name="dollar" format="1">
  <advance width="1255.424"/>
  <unicode hex="0024"/>
  <outline>
    <contour>
      <point x="965" y="1450" type="line"/>
      <point x="1067.23880597" y="1428.35820896"/>
      <point x="1239.62686567" y="1334.14925373"/>
      <point x="1315" y="1264" type="qcurve"/>
      <point x="1098" y="1028" type="line"/>
      <point x="1048.74626866" y="1081.73134328"/>
      <point x="930.686567164" y="1157.85074627"/>
      <point x="868" y="1178" type="qcurve"/>
      <point x="791" y="866" type="line"/>
      <point x="992.492537313" y="788.388059701"/>
      <point x="1178.0" y="612.492537313"/>
      <point x="1178" y="461" type="qcurve" smooth="yes"/>
      <point x="1178.0" y="262.492537313"/>
      <point x="886.835820896" y="5.49253731343"/>
      <point x="604" y="4" type="qcurve"/>
      <point x="555" y="-195" type="line"/>
      <point x="342" y="-195" type="line"/>
      <point x="395" y="25" type="line"/>
      <point x="251.71641791" y="55.5970149254"/>
      <point x="32.1343283582" y="187.402985075"/>
      <point x="-41" y="268" type="qcurve"/>
      <point x="176" y="504" type="line"/>
      <point x="247.641791045" y="421.164179104"/>
      <point x="397.223880597" y="314.641791045"/>
      <point x="492" y="293" type="qcurve"/>
      <point x="573" y="618" type="line"/>
      <point x="397.626865672" y="690.388059701"/>
      <point x="203.0" y="860.507462687"/>
      <point x="203" y="1012" type="qcurve" smooth="yes"/>
      <point x="203.0" y="1229.1641791"/>
      <point x="520.179104478" y="1468.50746269"/>
      <point x="756" y="1470" type="qcurve"/>
      <point x="778" y="1561" type="line"/>
      <point x="991" y="1561" type="line"/>
    </contour>
    <contour>
      <point x="649" y="922" type="qcurve"/>
      <point x="717" y="1192" type="line"/>
      <point x="640.134328358" y="1186.02985075"/>
      <point x="559.0" y="1109.40298507"/>
      <point x="559" y="1040" type="qcurve" smooth="yes"/>
      <point x="559.0" y="1004.92537313"/>
      <point x="599.0" y="948.865671642"/>
    </contour>
    <contour>
      <point x="643" y="281" type="line"/>
      <point x="737.776119403" y="285.47761194"/>
      <point x="821.0" y="365.820895522"/>
      <point x="821" y="430" type="qcurve" smooth="yes"/>
      <point x="821.0" y="476.268656716"/>
      <point x="767.985074627" y="536.880597015"/>
      <point x="715" y="563" type="qcurve"/>
    </contour>
  </outline>
</glyph>
<glyph name="ampersand" format="1">
  <advance width="1515.52"/>
  <unicode hex="0026"/>
  <outline>
    <contour>
      <point x="1257" y="918" type="qcurve"/>
      <point x="1528" y="791" type="line"/>
      <point x="1442.17910448" y="655.925373134"/>
      <point x="1251.29850746" y="422.805970149"/>
      <point x="1161" y="334" type="qcurve"/>
      <point x="1191.59701493" y="298.925373134"/>
      <point x="1247.46268657" y="276.0"/>
      <point x="1290" y="276" type="qcurve" smooth="yes"/>
      <point x="1328.05970149" y="276.0"/>
      <point x="1383.41791045" y="285.537313433"/>
      <point x="1417" y="293" type="qcurve"/>
      <point x="1346" y="2" type="line"/>
      <point x="1299.73134328" y="-6.9552238806"/>
      <point x="1224.53731343" y="-14.0"/>
      <point x="1182" y="-14" type="qcurve" smooth="yes"/>
      <point x="1074.53731343" y="-14.0"/>
      <point x="937.955223881" y="43.5970149254"/>
      <point x="879" y="113" type="qcurve"/>
      <point x="759.597014925" y="43.5970149254"/>
      <point x="561.28358209" y="-20.0"/>
      <point x="418" y="-20" type="qcurve" smooth="yes"/>
      <point x="220.985074627" y="-20.0"/>
      <point x="-12.0" y="159.343283582"/>
      <point x="-12" y="328" type="qcurve" smooth="yes"/>
      <point x="-12.0" y="504.865671642"/>
      <point x="219.343283582" y="755.223880597"/>
      <point x="438" y="850" type="qcurve"/>
      <point x="410.388059701" y="920.149253731"/>
      <point x="391.0" y="1035.0"/>
      <point x="391" y="1085" type="qcurve" smooth="yes"/>
      <point x="391.0" y="1262.6119403"/>
      <point x="647.014925373" y="1499.0"/>
      <point x="850" y="1499" type="qcurve" smooth="yes"/>
      <point x="1036.56716418" y="1499.0"/>
      <point x="1227.0" y="1336.32835821"/>
      <point x="1227" y="1202" type="qcurve" smooth="yes"/>
      <point x="1227.0" y="1075.13432836"/>
      <point x="1036.59701493" y="879.119402985"/>
      <point x="856" y="803" type="qcurve"/>
      <point x="895.552238806" y="737.328358209"/>
      <point x="966.71641791" y="624.671641791"/>
      <point x="1010" y="559" type="qcurve"/>
      <point x="1074.17910448" y="633.626865672"/>
      <point x="1202.52238806" y="824.71641791"/>
    </contour>
    <contour>
      <point x="575" y="264" type="qcurve" smooth="yes"/>
      <point x="615.298507463" y="264.0"/>
      <point x="693.955223881" y="288.611940299"/>
      <point x="735" y="311" type="qcurve"/>
      <point x="678.28358209" y="395.328358209"/>
      <point x="586.492537313" y="551.23880597"/>
      <point x="535" y="649" type="qcurve"/>
      <point x="459.626865672" y="599.0"/>
      <point x="389.0" y="487.671641791"/>
      <point x="389" y="422" type="qcurve" smooth="yes"/>
      <point x="389.0" y="347.373134328"/>
      <point x="486.940298507" y="264.0"/>
    </contour>
    <contour>
      <point x="754" y="973" type="qcurve"/>
      <point x="845.791044776" y="1018.52238806"/>
      <point x="922.0" y="1117.82089552"/>
      <point x="922" y="1182" type="qcurve" smooth="yes"/>
      <point x="922.0" y="1221.55223881"/>
      <point x="878.537313433" y="1276.0"/>
      <point x="836" y="1276" type="qcurve" smooth="yes"/>
      <point x="777.791044776" y="1276.0"/>
      <point x="719.0" y="1184.49253731"/>
      <point x="719" y="1133" type="qcurve" smooth="yes"/>
      <point x="719.0" y="1094.19402985"/>
      <point x="732.358208955" y="1021.50746269"/>
    </contour>
  </outline>
</glyph>
<glyph name="parenright" format="1">
  <advance width="841.728"/>
  <unicode hex="0029"/>
  <outline>
    <contour>
      <point x="555" y="1505" type="line"/>
      <point x="661.71641791" y="1363.20895522"/>
      <point x="807.0" y="1016.67164179"/>
      <point x="807" y="801" type="qcurve" smooth="yes"/>
      <point x="807.0" y="518.164179104"/>
      <point x="502.701492537" y="1.26865671642"/>
      <point x="193" y="-195" type="qcurve"/>
      <point x="-203" y="-195" type="line"/>
      <point x="147.0" y="86.3432835821"/>
      <point x="377.0" y="594.268656716"/>
      <point x="377" y="848" type="qcurve" smooth="yes"/>
      <point x="377.0" y="1039.04477612"/>
      <point x="300.343283582" y="1340.07462687"/>
      <point x="219" y="1505" type="qcurve"/>
    </contour>
  </outline>
</glyph>
<glyph name="asterisk" format="1">
  <advance width="901.12"/>
  <unicode hex="002A"/>
  <outline>
    <contour>
      <point x="895" y="1384" type="line"/>
      <point x="1001" y="1059" type="line"/>
      <point x="698" y="1067" type="line"/>
      <point x="958" y="895" type="line"/>
      <point x="678" y="690" type="line"/>
      <point x="584" y="997" type="line"/>
      <point x="492" y="690" type="line"/>
      <point x="211" y="895" type="line"/>
      <point x="471" y="1067" type="line"/>
      <point x="166" y="1059" type="line"/>
      <point x="274" y="1386" type="line"/>
      <point x="518" y="1186" type="line"/>
      <point x="410" y="1475" type="line"/>
      <point x="758" y="1475" type="line"/>
      <point x="649" y="1186" type="line"/>
    </contour>
  </outline>
</glyph>
<glyph name="comma" format="1">
  <advance width="548.864"/>
  <unicode hex="002C"/>
  <outline>
    <contour>
      <point x="61" y="426" type="line"/>
      <point x="508" y="426" type="line"/>
      <point x="82" y="-231" type="line"/>
      <point x="-152" y="-231" type="line"/>
    </contour>
  </outline>
</glyph>
<glyph name="zero" format="1">
  <advance width="1294.336"/>
  <unicode hex="0030"/>
  <outline>
    <contour>
      <point x="1307" y="1012" type="qcurve" smooth="yes"/>
      <point x="1307" y="1001" type="line" smooth="yes"/>
      <point x="1307.0" y="949.507462687"/>
      <point x="1285.94029851" y="765.47761194"/>
      <point x="1274" y="711" type="qcurve" smooth="yes"/>
      <point x="1185.19402985" y="317.71641791"/>
      <point x="847.328358209" y="-25.0"/>
      <point x="563" y="-25" type="qcurve" smooth="yes"/>
      <point x="342.850746269" y="-25.0"/>
      <point x="74.0" y="229.417910448"/>
      <point x="74" y="463" type="qcurve" smooth="yes"/>
      <point x="74" y="473" type="line" smooth="yes"/>
      <point x="74.0" y="525.23880597"/>
      <point x="94.0597014925" y="708.776119403"/>
      <point x="106" y="764" type="qcurve" smooth="yes"/>
      <point x="194.805970149" y="1156.53731343"/>
      <point x="532.671641791" y="1499.0"/>
      <point x="817" y="1499" type="qcurve" smooth="yes"/>
      <point x="1037.14925373" y="1499.0"/>
      <point x="1307.0" y="1245.58208955"/>
    </contour>
    <contour>
      <point x="813" y="657" type="qcurve" smooth="yes"/>
      <point x="849.567164179" y="793.567164179"/>
      <point x="877.0" y="973.76119403"/>
      <point x="877" y="1026" type="qcurve" smooth="yes"/>
      <point x="877" y="1034" type="line" smooth="yes"/>
      <point x="877.0" y="1098.17910448"/>
      <point x="829.731343284" y="1167.0"/>
      <point x="776" y="1167" type="qcurve" smooth="yes"/>
      <point x="710.328358209" y="1167.0"/>
      <point x="623.71641791" y="1022.2238806"/>
      <point x="567" y="817" type="qcurve" smooth="yes"/>
      <point x="530.432835821" y="681.179104478"/>
      <point x="504.0" y="500.492537313"/>
      <point x="504" y="449" type="qcurve" smooth="yes"/>
      <point x="504" y="440" type="line" smooth="yes"/>
      <point x="504.0" y="375.820895522"/>
      <point x="550.268656716" y="307.0"/>
      <point x="604" y="307" type="qcurve" smooth="yes"/>
      <point x="669.671641791" y="307.0"/>
      <point x="756.28358209" y="452.52238806"/>
    </contour>
  </outline>
</glyph>
<glyph name="one" format="1">
  <advance width="942.08"/>
  <unicode hex="0031"/>
  <outline>
    <contour>
      <point x="274" y="1475" type="line"/>
      <point x="938" y="1475" type="line"/>
      <point x="635" y="256" type="line"/>
      <point x="840" y="256" type="line"/>
      <point x="776" y="0" type="line"/>
      <point x="-68" y="0" type="line"/>
      <point x="-4" y="256" type="line"/>
      <point x="203" y="256" type="line"/>
      <point x="442" y="1219" type="line"/>
      <point x="211" y="1219" type="line"/>
    </contour>
  </outline>
</glyph>
<glyph name="five" format="1">
  <advance width="1200.128"/>
  <unicode hex="0035"/>
  <outline>
    <contour>
      <point x="342" y="1475" type="line"/>
      <point x="1257" y="1475" type="line"/>
      <point x="1186" y="1135" type="line"/>
      <point x="537" y="1135" type="line"/>
      <point x="465" y="883" type="line"/>
      <point x="477" y="883" type="line"/>
      <point x="541.179104478" y="930.014925373"/>
      <point x="685.76119403" y="993.0"/>
      <point x="788" y="993" type="qcurve" smooth="yes"/>
      <point x="956.656716418" y="993.0"/>
      <point x="1155.0" y="786.567164179"/>
      <point x="1155" y="600" type="qcurve" smooth="yes"/>
      <point x="1155" y="592" type="line" smooth="yes"/>
      <point x="1155.0" y="298.71641791"/>
      <point x="815.940298507" y="-20.0"/>
      <point x="504" y="-20" type="qcurve" smooth="yes"/>
      <point x="337.582089552" y="-20.0"/>
      <point x="60.0" y="55.4179104478"/>
      <point x="-90" y="139" type="qcurve"/>
      <point x="84" y="432" type="line"/>
      <point x="186.23880597" y="373.791044776"/>
      <point x="387.746268657" y="307.0"/>
      <point x="487" y="307" type="qcurve" smooth="yes"/>
      <point x="595.955223881" y="307.0"/>
      <point x="721.0" y="426.268656716"/>
      <point x="721" y="530" type="qcurve" smooth="yes"/>
      <point x="721" y="539" type="line" smooth="yes"/>
      <point x="721.0" y="621.089552239"/>
      <point x="640.47761194" y="692.0"/>
      <point x="586" y="692" type="qcurve" smooth="yes"/>
      <point x="532.268656716" y="692.0"/>
      <point x="438.194029851" y="649.28358209"/>
      <point x="377" y="606" type="qcurve"/>
      <point x="102" y="606" type="line"/>
    </contour>
  </outline>
</glyph>
<glyph name="six" format="1">
  <advance width="1271.808"/>
  <unicode hex="0036"/>
  <outline>
    <contour>
      <point x="743" y="1475" type="qcurve"/>
      <point x="1329" y="1475" type="line"/>
      <point x="1031.23880597" y="1312.31343284"/>
      <point x="606.835820896" y="998.641791045"/>
      <point x="524" y="877" type="qcurve"/>
      <point x="537" y="877" type="line"/>
      <point x="604.164179104" y="924.014925373"/>
      <point x="768.23880597" y="981.0"/>
      <point x="866" y="981" type="qcurve" smooth="yes"/>
      <point x="1024.95522388" y="981.0"/>
      <point x="1229.0" y="795.074626866"/>
      <point x="1229" y="610" type="qcurve" smooth="yes"/>
      <point x="1229.0" y="351.791044776"/>
      <point x="871.791044776" y="-25.0"/>
      <point x="580" y="-25" type="qcurve" smooth="yes"/>
      <point x="344.179104478" y="-25.0"/>
      <point x="51.0" y="181.731343284"/>
      <point x="51" y="428" type="qcurve" smooth="yes"/>
      <point x="51.0" y="739.940298507"/>
      <point x="417.626865672" y="1259.32835821"/>
    </contour>
    <contour>
      <point x="594" y="258" type="qcurve" smooth="yes"/>
      <point x="685.791044776" y="258.0"/>
      <point x="801.0" y="433.567164179"/>
      <point x="801" y="547" type="qcurve" smooth="yes"/>
      <point x="801.0" y="620.134328358"/>
      <point x="726.179104478" y="700.0"/>
      <point x="662" y="700" type="qcurve" smooth="yes"/>
      <point x="570.208955224" y="700.0"/>
      <point x="455.0" y="524.686567164"/>
      <point x="455" y="412" type="qcurve" smooth="yes"/>
      <point x="455.0" y="338.119402985"/>
      <point x="529.820895522" y="258.0"/>
    </contour>
  </outline>
</glyph>
<glyph name="eight" format="1">
  <advance width="1251.328"/>
  <unicode hex="0038"/>
  <outline>
    <contour>
      <point x="766" y="1499" type="qcurve" smooth="yes"/>
      <point x="1004.05970149" y="1499.0"/>
      <point x="1284.0" y="1304.91044776"/>
      <point x="1284" y="1137" type="qcurve" smooth="yes"/>
      <point x="1284.0" y="994.462686567"/>
      <point x="1110.37313433" y="797.074626866"/>
      <point x="985" y="762" type="qcurve"/>
      <point x="985" y="752" type="line"/>
      <point x="1063.35820896" y="719.910447761"/>
      <point x="1180.0" y="572.194029851"/>
      <point x="1180" y="461" type="qcurve" smooth="yes"/>
      <point x="1180.0" y="242.343283582"/>
      <point x="848.343283582" y="-25.0"/>
      <point x="567" y="-25" type="qcurve" smooth="yes"/>
      <point x="314.76119403" y="-25.0"/>
      <point x="16.0" y="179.955223881"/>
      <point x="16" y="371" type="qcurve" smooth="yes"/>
      <point x="16.0" y="541.895522388"/>
      <point x="222.492537313" y="767.447761194"/>
      <point x="371" y="807" type="qcurve"/>
      <point x="371" y="817" type="line"/>
      <point x="291.149253731" y="864.76119403"/>
      <point x="207.0" y="992.462686567"/>
      <point x="207" y="1085" type="qcurve" smooth="yes"/>
      <point x="207.0" y="1261.11940299"/>
      <point x="515.253731343" y="1499.0"/>
    </contour>
    <contour>
      <point x="584" y="256" type="qcurve" smooth="yes"/>
      <point x="674.298507463" y="256.0"/>
      <point x="778.0" y="403.925373134"/>
      <point x="778" y="489" type="qcurve" smooth="yes"/>
      <point x="778.0" y="565.865671642"/>
      <point x="694.671641791" y="649.0"/>
      <point x="629" y="649" type="qcurve" smooth="yes"/>
      <point x="538.701492537" y="649.0"/>
      <point x="434.0" y="501.074626866"/>
      <point x="434" y="416" type="qcurve" smooth="yes"/>
      <point x="434.0" y="339.134328358"/>
      <point x="518.328358209" y="256.0"/>
    </contour>
    <contour>
      <point x="719" y="897" type="qcurve" smooth="yes"/>
      <point x="790.641791045" y="897.0"/>
      <point x="872.0" y="1027.82089552"/>
      <point x="872" y="1092" type="qcurve" smooth="yes"/>
      <point x="872.0" y="1156.17910448"/>
      <point x="804.507462687" y="1219.0"/>
      <point x="756" y="1219" type="qcurve" smooth="yes"/>
      <point x="683.611940299" y="1219.0"/>
      <point x="602.0" y="1088.17910448"/>
      <point x="602" y="1024" type="qcurve" smooth="yes"/>
      <point x="602.0" y="959.820895522"/>
      <point x="669.746268657" y="897.0"/>
    </contour>
  </outline>
</glyph>
<glyph name="colon" format="1">
  <advance width="569.344"/>
  <unicode hex="003A"/>
  <outline>
    <contour>
      <point x="205" y="436" type="qcurve" smooth="yes"/>
      <point x="301.268656716" y="436.0"/>
      <point x="430.0" y="307.268656716"/>
      <point x="430" y="211" type="qcurve" smooth="yes"/>
      <point x="430.0" y="114.731343284"/>
      <point x="301.268656716" y="-14.0"/>
      <point x="205" y="-14" type="qcurve" smooth="yes"/>
      <point x="108.731343284" y="-14.0"/>
      <point x="-20.0" y="114.731343284"/>
      <point x="-20" y="211" type="qcurve" smooth="yes"/>
      <point x="-20.0" y="307.268656716"/>
      <point x="108.731343284" y="436.0"/>
    </contour>
    <contour>
      <point x="371" y="1124" type="qcurve" smooth="yes"/>
      <point x="467.268656716" y="1124.0"/>
      <point x="596.0" y="995.268656716"/>
      <point x="596" y="899" type="qcurve" smooth="yes"/>
      <point x="596.0" y="802.731343284"/>
      <point x="467.268656716" y="674.0"/>
      <point x="371" y="674" type="qcurve" smooth="yes"/>
      <point x="274.731343284" y="674.0"/>
      <point x="145.0" y="802.731343284"/>
      <point x="145" y="899" type="qcurve" smooth="yes"/>
      <point x="145.0" y="995.268656716"/>
      <point x="274.731343284" y="1124.0"/>
    </contour>
  </outline>
</glyph>
<glyph name="A" format="1">
  <advance width="1425.408"/>
  <unicode hex="0041"/>
  <outline>
    <contour>
      <point x="1225" y="1479" type="line"/>
      <point x="1270" y="0" type="line"/>
      <point x="831" y="0" type="line"/>
      <point x="842" y="295" type="line"/>
      <point x="463" y="295" type="line"/>
      <point x="328" y="0" type="line"/>
      <point x="-123" y="0" type="line"/>
      <point x="659" y="1479" type="line"/>
    </contour>
    <contour>
      <point x="852" y="573" type="line"/>
      <point x="872" y="1161" type="line"/>
      <point x="864" y="1161" type="line"/>
      <point x="592" y="573" type="line"/>
    </contour>
  </outline>
</glyph>
<glyph name="H" format="1">
  <advance width="1347.584"/>
  <unicode hex="0048"/>
  <outline>
    <contour>
      <point x="1049" y="1475" type="line"/>
      <point x="1491" y="1475" type="line"/>
      <point x="1122" y="0" type="line"/>
      <point x="680" y="0" type="line"/>
      <point x="821" y="565" type="line"/>
      <point x="530" y="565" type="line"/>
      <point x="389" y="0" type="line"/>
      <point x="-53" y="0" type="line"/>
      <point x="315" y="1475" type="line"/>
      <point x="758" y="1475" type="line"/>
      <point x="627" y="946" type="line"/>
      <point x="918" y="946" type="line"/>
    </contour>
  </outline>
</glyph>
<glyph name="I" format="1">
  <advance width="954.368"/>
  <unicode hex="0049"/>
  <outline>
    <contour>
      <point x="291" y="1475" type="line"/>
      <point x="1122" y="1475" type="line"/>
      <point x="1083" y="1321" type="line"/>
      <point x="889" y="1321" type="line"/>
      <point x="598" y="154" type="line"/>
      <point x="793" y="154" type="line"/>
      <point x="754" y="0" type="line"/>
      <point x="-78" y="0" type="line"/>
      <point x="-39" y="154" type="line"/>
      <point x="156" y="154" type="line"/>
      <point x="446" y="1321" type="line"/>
      <point x="252" y="1321" type="line"/>
    </contour>
  </outline>
</glyph>
<glyph name="J" format="1">
  <advance width="1165.312"/>
  <unicode hex="004A"/>
  <outline>
    <contour>
      <point x="879" y="1475" type="line"/>
      <point x="1321" y="1475" type="line"/>
      <point x="1069" y="461" type="line" smooth="yes"/>
      <point x="1007.80597015" y="214.731343284"/>
      <point x="718.223880597" y="-25.0"/>
      <point x="463" y="-25" type="qcurve" smooth="yes"/>
      <point x="245.835820896" y="-25.0"/>
      <point x="-14.0" y="162.417910448"/>
      <point x="-14" y="346" type="qcurve" smooth="yes"/>
      <point x="-14.0" y="379.582089552"/>
      <point x="-7.46268656716" y="443.447761194"/>
      <point x="0" y="483" type="qcurve"/>
      <point x="428" y="547" type="line"/>
      <point x="419.044776119" y="508.940298507"/>
      <point x="410.0" y="444.626865672"/>
      <point x="410" y="420" type="qcurve" smooth="yes"/>
      <point x="410.0" y="367.76119403"/>
      <point x="458.208955224" y="322.0"/>
      <point x="500" y="322" type="qcurve" smooth="yes"/>
      <point x="547.014925373" y="322.0"/>
      <point x="610.343283582" y="395.865671642"/>
      <point x="629" y="469" type="qcurve" smooth="yes"/>
    </contour>
  </outline>
</glyph>
<glyph name="K" format="1">
  <advance width="1398.784"/>
  <unicode hex="004B"/>
  <outline>
    <contour>
      <point x="1116" y="1475" type="line"/>
      <point x="1602" y="1475" type="line"/>
      <point x="1053" y="797" type="line"/>
      <point x="1268" y="0" type="line"/>
      <point x="803" y="0" type="line"/>
      <point x="606" y="795" type="line"/>
      <point x="606" y="807" type="line"/>
    </contour>
    <contour>
      <point x="315" y="1475" type="line"/>
      <point x="758" y="1475" type="line"/>
      <point x="389" y="0" type="line"/>
      <point x="-53" y="0" type="line"/>
    </contour>
  </outline>
</glyph>
<glyph name="N" format="1">
  <advance width="1347.584"/>
  <unicode hex="004E"/>
  <outline>
    <contour>
      <point x="1085" y="1475" type="line"/>
      <point x="1491" y="1475" type="line"/>
      <point x="1122" y="0" type="line"/>
      <point x="748" y="0" type="line"/>
      <point x="553" y="766" type="line"/>
      <point x="545" y="766" type="line"/>
      <point x="352" y="0" type="line"/>
      <point x="-53" y="0" type="line"/>
      <point x="315" y="1475" type="line"/>
      <point x="731" y="1475" type="line"/>
      <point x="905" y="782" type="line"/>
      <point x="913" y="782" type="line"/>
    </contour>
  </outline>
</glyph>
<glyph name="O" format="1">
  <advance width="1351.68"/>
  <unicode hex="004F"/>
  <outline>
    <contour>
      <point x="1364" y="1012" type="qcurve" smooth="yes"/>
      <point x="1364" y="1001" type="line" smooth="yes"/>
      <point x="1364.0" y="949.507462687"/>
      <point x="1345.17910448" y="772.194029851"/>
      <point x="1331" y="711" type="qcurve" smooth="yes"/>
      <point x="1243.68656716" y="320.701492537"/>
      <point x="893.253731343" y="-25.0"/>
      <point x="594" y="-25" type="qcurve" smooth="yes"/>
      <point x="361.910447761" y="-25.0"/>
      <point x="78.0" y="227.179104478"/>
      <point x="78" y="463" type="qcurve" smooth="yes"/>
      <point x="78" y="473" type="line" smooth="yes"/>
      <point x="78.0" y="525.23880597"/>
      <point x="96.8208955224" y="702.805970149"/>
      <point x="111" y="764" type="qcurve" smooth="yes"/>
      <point x="197.567164179" y="1153.55223881"/>
      <point x="548.0" y="1499.0"/>
      <point x="848" y="1499" type="qcurve" smooth="yes"/>
      <point x="1080.08955224" y="1499.0"/>
      <point x="1364.0" y="1247.07462687"/>
    </contour>
    <contour>
      <point x="862" y="676" type="qcurve" smooth="yes"/>
      <point x="895.582089552" y="796.895522388"/>
      <point x="922.0" y="965.76119403"/>
      <point x="922" y="1018" type="qcurve" smooth="yes"/>
      <point x="922" y="1026" type="line" smooth="yes"/>
      <point x="922.0" y="1090.17910448"/>
      <point x="864.731343284" y="1167.0"/>
      <point x="811" y="1167" type="qcurve" smooth="yes"/>
      <point x="742.343283582" y="1167.0"/>
      <point x="637.462686567" y="1012.43283582"/>
      <point x="580" y="799" type="qcurve" smooth="yes"/>
      <point x="546.417910448" y="678.104477612"/>
      <point x="520.0" y="508.492537313"/>
      <point x="520" y="457" type="qcurve" smooth="yes"/>
      <point x="520" y="449" type="line" smooth="yes"/>
      <point x="520.0" y="384.074626866"/>
      <point x="577.268656716" y="307.0"/>
      <point x="631" y="307" type="qcurve" smooth="yes"/>
      <point x="699.656716418" y="307.0"/>
      <point x="803.791044776" y="461.820895522"/>
    </contour>
  </outline>
</glyph>
<glyph name="P" format="1">
  <advance width="1230.848"/>
  <unicode hex="0050"/>
  <outline>
    <contour>
      <point x="801" y="1475" type="line" smooth="yes"/>
      <point x="1056.2238806" y="1475.0"/>
      <point x="1315.0" y="1269.53731343"/>
      <point x="1315" y="1077" type="qcurve" smooth="yes"/>
      <point x="1315.0" y="821.776119403"/>
      <point x="959.76119403" y="524.0"/>
      <point x="662" y="524" type="qcurve" smooth="yes"/>
      <point x="520" y="524" type="line"/>
      <point x="389" y="0" type="line"/>
      <point x="-53" y="0" type="line"/>
      <point x="315" y="1475" type="line"/>
    </contour>
    <contour>
      <point x="670" y="840" type="line" smooth="yes"/>
      <point x="764.776119403" y="840.0"/>
      <point x="881.0" y="946.925373134"/>
      <point x="881" y="1032" type="qcurve" smooth="yes"/>
      <point x="881.0" y="1107.37313433"/>
      <point x="790.805970149" y="1167.0"/>
      <point x="702" y="1167" type="qcurve" smooth="yes"/>
      <point x="662" y="1167" type="line"/>
      <point x="580" y="840" type="line"/>
    </contour>
  </outline>
</glyph>
<glyph name="Q" format="1">
  <advance width="1351.68"/>
  <unicode hex="0051"/>
  <outline>
    <contour>
      <point x="1364" y="1012" type="qcurve" smooth="yes"/>
      <point x="1364" y="1001" type="line" smooth="yes"/>
      <point x="1364.0" y="949.507462687"/>
      <point x="1345.17910448" y="772.194029851"/>
      <point x="1331" y="711" type="qcurve" smooth="yes"/>
      <point x="1279.50746269" y="476.671641791"/>
      <point x="1113.89552239" y="168.328358209"/>
      <point x="993" y="84" type="qcurve"/>
      <point x="1004" y="66" type="line" smooth="yes"/>
      <point x="1026.3880597" y="24.2089552239"/>
      <point x="1096.76119403" y="-14.0"/>
      <point x="1149" y="-14" type="qcurve" smooth="yes"/>
      <point x="1167.65671642" y="-14.0"/>
      <point x="1197.35820896" y="-10.9850746269"/>
      <point x="1219" y="-8" type="qcurve"/>
      <point x="1153" y="-262" type="line"/>
      <point x="1135.8358209" y="-263.492537313"/>
      <point x="1114.92537313" y="-264.0"/>
      <point x="1100" y="-264" type="qcurve" smooth="yes"/>
      <point x="970.149253731" y="-264.0"/>
      <point x="820.776119403" y="-189.223880597"/>
      <point x="776" y="-84" type="qcurve" smooth="yes"/>
      <point x="745" y="-12" type="line"/>
      <point x="709.925373134" y="-17.9701492537"/>
      <point x="635.044776119" y="-25.0"/>
      <point x="594" y="-25" type="qcurve" smooth="yes"/>
      <point x="361.910447761" y="-25.0"/>
      <point x="78.0" y="227.179104478"/>
      <point x="78" y="463" type="qcurve" smooth="yes"/>
      <point x="78" y="473" type="line" smooth="yes"/>
      <point x="78.0" y="525.23880597"/>
      <point x="96.8208955224" y="702.805970149"/>
      <point x="111" y="764" type="qcurve" smooth="yes"/>
      <point x="197.567164179" y="1153.55223881"/>
      <point x="548.0" y="1499.0"/>
      <point x="848" y="1499" type="qcurve" smooth="yes"/>
      <point x="1080.08955224" y="1499.0"/>
      <point x="1364.0" y="1247.07462687"/>
    </contour>
    <contour>
      <point x="856" y="655" type="qcurve" smooth="yes"/>
      <point x="889.582089552" y="775.895522388"/>
      <point x="922.0" y="965.76119403"/>
      <point x="922" y="1018" type="qcurve" smooth="yes"/>
      <point x="922" y="1026" type="line" smooth="yes"/>
      <point x="922.0" y="1090.17910448"/>
      <point x="864.731343284" y="1167.0"/>
      <point x="811" y="1167" type="qcurve" smooth="yes"/>
      <point x="742.343283582" y="1167.0"/>
      <point x="631.208955224" y="992.179104478"/>
      <point x="573" y="778" type="qcurve" smooth="yes"/>
      <point x="539.417910448" y="657.104477612"/>
      <point x="508.0" y="467.492537313"/>
      <point x="508" y="416" type="qcurve" smooth="yes"/>
      <point x="508" y="408" type="line" smooth="yes"/>
      <point x="508.0" y="343.820895522"/>
      <point x="565.014925373" y="266.0"/>
      <point x="618" y="266" type="qcurve" smooth="yes"/>
      <point x="630.686567164" y="266.0"/>
      <point x="652.805970149" y="269.014925373"/>
      <point x="664" y="272" type="qcurve"/>
      <point x="578" y="489" type="line"/>
      <point x="735" y="563" type="line"/>
      <point x="791" y="438" type="line"/>
      <point x="804.432835821" y="479.791044776"/>
      <point x="837.343283582" y="587.835820896"/>
    </contour>
  </outline>
</glyph>
<glyph name="R" format="1">
  <advance width="1292.288"/>
  <unicode hex="0052"/>
  <outline>
    <contour>
      <point x="811" y="1475" type="line" smooth="yes"/>
      <point x="1066.2238806" y="1475.0"/>
      <point x="1325.0" y="1269.53731343"/>
      <point x="1325" y="1077" type="qcurve" smooth="yes"/>
      <point x="1325.0" y="912.074626866"/>
      <point x="1135.98507463" y="681.447761194"/>
      <point x="983" y="621" type="qcurve"/>
      <point x="1165" y="0" type="line"/>
      <point x="707" y="0" type="line"/>
      <point x="563" y="553" type="line"/>
      <point x="528" y="553" type="line"/>
      <point x="389" y="0" type="line"/>
      <point x="-53" y="0" type="line"/>
      <point x="315" y="1475" type="line"/>
    </contour>
    <contour>
      <point x="680" y="840" type="line" smooth="yes"/>
      <point x="774.776119403" y="840.0"/>
      <point x="891.0" y="946.925373134"/>
      <point x="891" y="1032" type="qcurve" smooth="yes"/>
      <point x="891.0" y="1105.13432836"/>
      <point x="799.567164179" y="1167.0"/>
      <point x="713" y="1167" type="qcurve" smooth="yes"/>
      <point x="662" y="1167" type="line"/>
      <point x="580" y="840" type="line"/>
    </contour>
  </outline>
</glyph>
<glyph name="S" format="1">
  <advance width="1236.992"/>
  <unicode hex="0053"/>
  <outline>
    <contour>
      <point x="766" y="1493" type="qcurve" smooth="yes"/>
      <point x="996.597014925" y="1493.0"/>
      <point x="1266.17910448" y="1349.20895522"/>
      <point x="1352" y="1241" type="qcurve"/>
      <point x="1024" y="1008" type="line"/>
      <point x="959.820895522" y="1082.62686567"/>
      <point x="811.865671642" y="1171.0"/>
      <point x="735" y="1171" type="qcurve" smooth="yes"/>
      <point x="660.373134328" y="1171.0"/>
      <point x="596.0" y="1104.04477612"/>
      <point x="596" y="1063" type="qcurve" smooth="yes"/>
      <point x="596.0" y="1012.25373134"/>
      <point x="665.507462687" y="948.731343284"/>
      <point x="817" y="895" type="qcurve" smooth="yes"/>
      <point x="1011.02985075" y="827.835820896"/>
      <point x="1186.0" y="624.492537313"/>
      <point x="1186" y="473" type="qcurve" smooth="yes"/>
      <point x="1186.0" y="243.895522388"/>
      <point x="853.194029851" y="-18.0"/>
      <point x="592" y="-18" type="qcurve" smooth="yes"/>
      <point x="354.686567164" y="-18.0"/>
      <point x="30.0447761194" y="129.611940299"/>
      <point x="-61" y="252" type="qcurve"/>
      <point x="254" y="498" type="line"/>
      <point x="318.179104478" y="413.671641791"/>
      <point x="504.805970149" y="303.0"/>
      <point x="616" y="303" type="qcurve" smooth="yes"/>
      <point x="694.358208955" y="303.0"/>
      <point x="764.0" y="367.223880597"/>
      <point x="764" y="412" type="qcurve" smooth="yes"/>
      <point x="764.0" y="453.044776119"/>
      <point x="702.52238806" y="521.0"/>
      <point x="557" y="571" type="qcurve" smooth="yes"/>
      <point x="332.373134328" y="649.358208955"/>
      <point x="172.0" y="851.23880597"/>
      <point x="172" y="999" type="qcurve" smooth="yes"/>
      <point x="172.0" y="1217.65671642"/>
      <point x="506.298507463" y="1493.0"/>
    </contour>
  </outline>
</glyph>
<glyph name="T" format="1">
  <advance width="1241.088"/>
  <unicode hex="0054"/>
  <outline>
    <contour>
      <point x="266" y="1475" type="line"/>
      <point x="1434" y="1475" type="line"/>
      <point x="1341" y="1106" type="line"/>
      <point x="979" y="1106" type="line"/>
      <point x="705" y="0" type="line"/>
      <point x="262" y="0" type="line"/>
      <point x="537" y="1106" type="line"/>
      <point x="174" y="1106" type="line"/>
    </contour>
  </outline>
</glyph>
<glyph name="U" format="1">
  <advance width="1298.432"/>
  <unicode hex="0055"/>
  <outline>
    <contour>
      <point x="1034" y="1475" type="line"/>
      <point x="1456" y="1475" type="line"/>
      <point x="1210" y="492" type="line" smooth="yes"/>
      <point x="1141.34328358" y="215.134328358"/>
      <point x="819.104477612" y="-25.0"/>
      <point x="590" y="-25" type="qcurve" smooth="yes"/>
      <point x="337.76119403" y="-25.0"/>
      <point x="55.0" y="178.014925373"/>
      <point x="55" y="381" type="qcurve" smooth="yes"/>
      <point x="55.0" y="434.731343284"/>
      <point x="72.0597014925" y="554.0"/>
      <point x="84" y="604" type="qcurve" smooth="yes"/>
      <point x="301" y="1475" type="line"/>
      <point x="743" y="1475" type="line"/>
      <point x="520" y="582" type="line" smooth="yes"/>
      <point x="511.044776119" y="544.686567164"/>
      <point x="500.0" y="468.626865672"/>
      <point x="500" y="444" type="qcurve" smooth="yes"/>
      <point x="500.0" y="386.537313433"/>
      <point x="560.537313433" y="322.0"/>
      <point x="618" y="322" type="qcurve" smooth="yes"/>
      <point x="677.701492537" y="322.0"/>
      <point x="772.373134328" y="421.253731343"/>
      <point x="797" y="522" type="qcurve" smooth="yes"/>
    </contour>
  </outline>
</glyph>
<glyph name="X" format="1">
  <advance width="1351.68"/>
  <unicode hex="0058"/>
  <outline>
    <contour>
      <point x="1092" y="1475" type="line"/>
      <point x="1544" y="1475" type="line"/>
      <point x="961" y="768" type="line"/>
      <point x="1200" y="0" type="line"/>
      <point x="727" y="0" type="line"/>
      <point x="627" y="397" type="line"/>
      <point x="326" y="0" type="line"/>
      <point x="-127" y="0" type="line"/>
      <point x="494" y="750" type="line"/>
      <point x="266" y="1475" type="line"/>
      <point x="739" y="1475" type="line"/>
      <point x="827" y="1120" type="line"/>
    </contour>
  </outline>
</glyph>
<glyph name="backslash" format="1">
  <advance width="974.848"/>
  <unicode hex="005C"/>
  <outline>
    <contour>
      <point x="604" y="1505" type="line"/>
      <point x="836" y="-195" type="line"/>
      <point x="481" y="-195" type="line"/>
      <point x="250" y="1505" type="line"/>
    </contour>
  </outline>
</glyph>
<glyph name="bracketright" format="1">
  <advance width="860.16"/>
  <unicode hex="005D"/>
  <outline>
    <contour>
      <point x="272" y="1475" type="line"/>
      <point x="985" y="1497" type="line"/>
      <point x="567" y="-186" type="line"/>
      <point x="-137" y="-164" type="line"/>
      <point x="-98" y="-10" type="line"/>
      <point x="221" y="-20" type="line"/>
      <point x="557" y="1331" type="line"/>
      <point x="233" y="1321" type="line"/>
    </contour>
  </outline>
</glyph>
<glyph name="asciicircum" format="1">
  <advance width="1126.4"/>
  <unicode hex="005E"/>
  <outline>
    <contour>
      <point x="985" y="1485" type="line"/>
      <point x="1161" y="834" type="line"/>
      <point x="903" y="834" type="line"/>
      <point x="719" y="1139" type="line"/>
      <point x="383" y="834" type="line"/>
      <point x="104" y="834" type="line"/>
      <point x="604" y="1485" type="line"/>
    </contour>
  </outline>
</glyph>
<glyph name="underscore" format="1">
  <advance width="1024.0"/>
  <unicode hex="005F"/>
  <outline>
    <contour>
      <point x="-162" y="-57" type="line"/>
      <point x="874" y="-57" type="line"/>
      <point x="834" y="-227" type="line"/>
      <point x="-203" y="-227" type="line"/>
    </contour>
  </outline>
</glyph>
<glyph name="grave" format="1">
  <advance width="1024.0"/>
  <unicode hex="0060"/>
  <outline>
    <contour>
      <point x="842" y="1522" type="line"/>
      <point x="922" y="1212" type="line"/>
      <point x="662" y="1212" type="line"/>
      <point x="406" y="1522" type="line"/>
    </contour>
  </outline>
</glyph>
<glyph name="c" format="1">
  <advance width="1054.72"/>
  <unicode hex="0063"/>
  <outline>
    <contour>
      <point x="666" y="1130" type="qcurve" smooth="yes"/>
      <point x="904.059701493" y="1130.0"/>
      <point x="1087.14925373" y="899.731343284"/>
      <point x="1067" y="696" type="qcurve"/>
      <point x="670" y="657" type="line"/>
      <point x="689.402985075" y="767.447761194"/>
      <point x="676.52238806" y="866.0"/>
      <point x="631" y="866" type="qcurve" smooth="yes"/>
      <point x="581.746268657" y="866.0"/>
      <point x="511.537313433" y="713.955223881"/>
      <point x="469" y="555" type="qcurve" smooth="yes"/>
      <point x="450.343283582" y="487.835820896"/>
      <point x="432.0" y="367.552238806"/>
      <point x="432" y="328" type="qcurve" smooth="yes"/>
      <point x="432" y="324" type="line" smooth="yes"/>
      <point x="432.0" y="286.686567164"/>
      <point x="462.134328358" y="242.0"/>
      <point x="489" y="242" type="qcurve" smooth="yes"/>
      <point x="524.820895522" y="242.0"/>
      <point x="588.701492537" y="321.731343284"/>
      <point x="629" y="418" type="qcurve"/>
      <point x="985" y="326" type="line"/>
      <point x="914.850746269" y="167.044776119"/>
      <point x="666.492537313" y="-20.0"/>
      <point x="465" y="-20" type="qcurve" smooth="yes"/>
      <point x="255.298507463" y="-20.0"/>
      <point x="25.0" y="181.0"/>
      <point x="25" y="381" type="qcurve" smooth="yes"/>
      <point x="25" y="385" type="line" smooth="yes"/>
      <point x="25.0" y="426.044776119"/>
      <point x="43.5671641791" y="545.28358209"/>
      <point x="57" y="602" type="qcurve" smooth="yes"/>
      <point x="122.671641791" y="861.701492537"/>
      <point x="416.746268657" y="1130.0"/>
    </contour>
  </outline>
</glyph>
<glyph name="e" format="1">
  <advance width="1062.912"/>
  <unicode hex="0065"/>
  <outline>
    <contour>
      <point x="635" y="1130" type="qcurve" smooth="yes"/>
      <point x="842.462686567" y="1130.0"/>
      <point x="1042.0" y="937.373134328"/>
      <point x="1042" y="762" type="qcurve" smooth="yes"/>
      <point x="1042.0" y="694.835820896"/>
      <point x="1015.11940299" y="546.791044776"/>
      <point x="989" y="455" type="qcurve"/>
      <point x="406" y="455" type="line"/>
      <point x="406.0" y="440.820895522"/>
      <point x="403.0" y="418.955223881"/>
      <point x="403" y="410" type="qcurve" smooth="yes"/>
      <point x="403" y="406" type="line" smooth="yes"/>
      <point x="403.0" y="326.149253731"/>
      <point x="496.179104478" y="264.0"/>
      <point x="582" y="264" type="qcurve" smooth="yes"/>
      <point x="633.492537313" y="264.0"/>
      <point x="798.731343284" y="294.388059701"/>
      <point x="895" y="322" type="qcurve"/>
      <point x="920" y="53" type="line"/>
      <point x="799.104477612" y="17.9253731343"/>
      <point x="611.865671642" y="-14.0"/>
      <point x="485" y="-14" type="qcurve" smooth="yes"/>
      <point x="246.940298507" y="-14.0"/>
      <point x="25.0" y="183.985074627"/>
      <point x="25" y="381" type="qcurve" smooth="yes"/>
      <point x="25" y="385" type="line" smooth="yes"/>
      <point x="25.0" y="424.552238806"/>
      <point x="43.5671641791" y="545.28358209"/>
      <point x="57" y="602" type="qcurve" smooth="yes"/>
      <point x="122.671641791" y="861.701492537"/>
      <point x="413.358208955" y="1130.0"/>
    </contour>
    <contour>
      <point x="645" y="608" type="line"/>
      <point x="660.671641791" y="663.223880597"/>
      <point x="678.0" y="761.895522388"/>
      <point x="678" y="791" type="qcurve" smooth="yes"/>
      <point x="678.0" y="843.985074627"/>
      <point x="646.059701493" y="897.0"/>
      <point x="608" y="897" type="qcurve" smooth="yes"/>
      <point x="556.507462687" y="897.0"/>
      <point x="468.089552239" y="728.895522388"/>
      <point x="436" y="608" type="qcurve"/>
    </contour>
  </outline>
</glyph>
<glyph name="f" format="1">
  <advance width="868.352"/>
  <unicode hex="0066"/>
  <outline>
    <contour>
      <point x="856" y="1554" type="qcurve" smooth="yes"/>
      <point x="955.253731343" y="1554.0"/>
      <point x="1084.34328358" y="1537.91044776"/>
      <point x="1153" y="1520" type="qcurve"/>
      <point x="1087" y="1251" type="line"/>
      <point x="1050.43283582" y="1263.68656716"/>
      <point x="978.0" y="1278.0"/>
      <point x="928" y="1278" type="qcurve" smooth="yes"/>
      <point x="859.343283582" y="1278.0"/>
      <point x="775.910447761" y="1218.64179104"/>
      <point x="758" y="1147" type="qcurve" smooth="yes"/>
      <point x="748" y="1106" type="line"/>
      <point x="999" y="1106" type="line"/>
      <point x="932" y="831" type="line"/>
      <point x="680" y="831" type="line"/>
      <point x="473" y="0" type="line"/>
      <point x="63" y="0" type="line"/>
      <point x="270" y="831" type="line"/>
      <point x="88" y="831" type="line"/>
      <point x="156" y="1106" type="line"/>
      <point x="338" y="1106" type="line"/>
      <point x="362" y="1198" type="line" smooth="yes"/>
      <point x="414.23880597" y="1393.52238806"/>
      <point x="637.343283582" y="1554.0"/>
    </contour>
  </outline>
</glyph>
<glyph name="h" format="1">
  <advance width="1163.264"/>
  <unicode hex="0068"/>
  <outline>
    <contour>
      <point x="961" y="1124" type="qcurve" smooth="yes"/>
      <point x="1063.23880597" y="1124.0"/>
      <point x="1171.0" y="1012.49253731"/>
      <point x="1171" y="911" type="qcurve" smooth="yes"/>
      <point x="1171.0" y="885.626865672"/>
      <point x="1162.46268657" y="824.582089552"/>
      <point x="1155" y="791" type="qcurve" smooth="yes"/>
      <point x="958" y="0" type="line"/>
      <point x="541" y="0" type="line"/>
      <point x="713" y="686" type="line" smooth="yes"/>
      <point x="717.47761194" y="704.656716418"/>
      <point x="721.0" y="735.820895522"/>
      <point x="721" y="750" type="qcurve" smooth="yes"/>
      <point x="721.0" y="782.089552239"/>
      <point x="683.059701493" y="815.0"/>
      <point x="645" y="815" type="qcurve" smooth="yes"/>
      <point x="624.850746269" y="815.0"/>
      <point x="582.611940299" y="802.179104478"/>
      <point x="555" y="788" type="qcurve"/>
      <point x="358" y="0" type="line"/>
      <point x="-59" y="0" type="line"/>
      <point x="313" y="1495" type="line"/>
      <point x="743" y="1544" type="line"/>
      <point x="580" y="885" type="line"/>
      <point x="588" y="885" type="line"/>
      <point x="702.179104478" y="1014.85074627"/>
      <point x="875.179104478" y="1124.0"/>
    </contour>
  </outline>
</glyph>
<glyph name="i" format="1">
  <advance width="585.728"/>
  <unicode hex="0069"/>
  <outline>
    <contour>
      <point x="223" y="1110" type="line"/>
      <point x="641" y="1110" type="line"/>
      <point x="365" y="0" type="line"/>
      <point x="-53" y="0" type="line"/>
    </contour>
    <contour>
      <point x="309" y="1495" type="line"/>
      <point x="748" y="1495" type="line"/>
      <point x="678" y="1214" type="line"/>
      <point x="240" y="1214" type="line"/>
    </contour>
  </outline>
</glyph>
<glyph name="j" format="1">
  <advance width="585.728"/>
  <unicode hex="006A"/>
  <outline>
    <contour>
      <point x="233" y="1110" type="line"/>
      <point x="651" y="1110" type="line"/>
      <point x="369" y="-25" type="line" smooth="yes"/>
      <point x="316.76119403" y="-232.462686567"/>
      <point x="80.8656716418" y="-389.0"/>
      <point x="-96" y="-389" type="qcurve" smooth="yes"/>
      <point x="-184.805970149" y="-389.0"/>
      <point x="-322.76119403" y="-369.164179104"/>
      <point x="-375" y="-352" type="qcurve"/>
      <point x="-315" y="-113" type="line"/>
      <point x="-284.402985075" y="-123.447761194"/>
      <point x="-230.104477612" y="-133.0"/>
      <point x="-201" y="-133" type="qcurve" smooth="yes"/>
      <point x="-141.298507463" y="-133.0"/>
      <point x="-61.1492537313" y="-71.6119402985"/>
      <point x="-41" y="6" type="qcurve" smooth="yes"/>
    </contour>
    <contour>
      <point x="319" y="1495" type="line"/>
      <point x="758" y="1495" type="line"/>
      <point x="688" y="1214" type="line"/>
      <point x="250" y="1214" type="line"/>
    </contour>
  </outline>
</glyph>
<glyph name="k" format="1">
  <advance width="1216.512"/>
  <unicode hex="006B"/>
  <outline>
    <contour>
      <point x="901" y="1110" type="line"/>
      <point x="1346" y="1110" type="line"/>
      <point x="926" y="567" type="line"/>
      <point x="1092" y="0" type="line"/>
      <point x="657" y="0" type="line"/>
      <point x="518" y="571" type="line"/>
      <point x="518" y="584" type="line"/>
    </contour>
    <contour>
      <point x="313" y="1495" type="line"/>
      <point x="743" y="1544" type="line"/>
      <point x="358" y="0" type="line"/>
      <point x="-59" y="0" type="line"/>
    </contour>
  </outline>
</glyph>
<glyph name="l" format="1">
  <advance width="585.728"/>
  <unicode hex="006C"/>
  <outline>
    <contour>
      <point x="319" y="1495" type="line"/>
      <point x="748" y="1544" type="line"/>
      <point x="365" y="0" type="line"/>
      <point x="-53" y="0" type="line"/>
    </contour>
  </outline>
</glyph>
<glyph name="s" format="1">
  <advance width="976.896"/>
  <unicode hex="0073"/>
  <outline>
    <contour>
      <point x="571" y="1130" type="qcurve" smooth="yes"/>
      <point x="735.179104478" y="1130.0"/>
      <point x="941.343283582" y="1018.7761194"/>
      <point x="1010" y="924" type="qcurve"/>
      <point x="760" y="741" type="line"/>
      <point x="704.776119403" y="811.895522388"/>
      <point x="602.731343284" y="883.0"/>
      <point x="549" y="883" type="qcurve" smooth="yes"/>
      <point x="504.223880597" y="883.0"/>
      <point x="461.0" y="841.119402985"/>
      <point x="461" y="815" type="qcurve" smooth="yes"/>
      <point x="461.0" y="785.895522388"/>
      <point x="517.253731343" y="735.313432836"/>
      <point x="618" y="698" type="qcurve" smooth="yes"/>
      <point x="776.955223881" y="640.537313433"/>
      <point x="907.0" y="489.208955224"/>
      <point x="907" y="381" type="qcurve" smooth="yes"/>
      <point x="907.0" y="197.417910448"/>
      <point x="640.149253731" y="-20.0"/>
      <point x="420" y="-20" type="qcurve" smooth="yes"/>
      <point x="239.402985075" y="-20.0"/>
      <point x="-3.85074626866" y="101.71641791"/>
      <point x="-74" y="195" type="qcurve"/>
      <point x="160" y="393" type="line"/>
      <point x="216.71641791" y="315.388059701"/>
      <point x="373.820895522" y="227.0"/>
      <point x="438" y="227" type="qcurve" smooth="yes"/>
      <point x="491.731343284" y="227.0"/>
      <point x="543.0" y="263.895522388"/>
      <point x="543" y="293" type="qcurve" smooth="yes"/>
      <point x="543.0" y="320.611940299"/>
      <point x="485.686567164" y="364.71641791"/>
      <point x="373" y="408" type="qcurve" smooth="yes"/>
      <point x="233.447761194" y="460.985074627"/>
      <point x="96.0" y="617.402985075"/>
      <point x="96" y="748" type="qcurve" smooth="yes"/>
      <point x="96.0" y="901.731343284"/>
      <point x="356.074626866" y="1130.0"/>
    </contour>
  </outline>
</glyph>
<glyph name="w" format="1">
  <advance width="1765.376"/>
  <unicode hex="0077"/>
  <outline>
    <contour>
      <point x="1466" y="1110" type="line"/>
      <point x="1886" y="1110" type="line"/>
      <point x="1317" y="-8" type="line"/>
      <point x="883" y="-8" type="line"/>
      <point x="901" y="614" type="line"/>
      <point x="608" y="-8" type="line"/>
      <point x="166" y="-8" type="line"/>
      <point x="154" y="1110" type="line"/>
      <point x="569" y="1110" type="line"/>
      <point x="506" y="446" type="line"/>
      <point x="815" y="1110" type="line"/>
      <point x="1221" y="1110" type="line"/>
      <point x="1198" y="446" type="line"/>
    </contour>
  </outline>
</glyph>
<glyph name="x" format="1">
  <advance width="1167.36"/>
  <unicode hex="0078"/>
  <outline>
    <contour>
      <point x="858" y="1110" type="line"/>
      <point x="1282" y="1110" type="line"/>
      <point x="795" y="569" type="line"/>
      <point x="1016" y="0" type="line"/>
      <point x="588" y="0" type="line"/>
      <point x="506" y="262" type="line"/>
      <point x="297" y="0" type="line"/>
      <point x="-127" y="0" type="line"/>
      <point x="375" y="557" type="line"/>
      <point x="160" y="1110" type="line"/>
      <point x="588" y="1110" type="line"/>
      <point x="662" y="862" type="line"/>
    </contour>
  </outline>
</glyph>
<glyph name="braceleft" format="1">
  <advance width="983.04"/>
  <unicode hex="007B"/>
  <outline>
    <contour>
      <point x="780" y="1475" type="qcurve" smooth="yes"/>
      <point x="1171" y="1475" type="line"/>
      <point x="1133" y="1321" type="line"/>
      <point x="969" y="1321" type="line" smooth="yes"/>
      <point x="889.149253731" y="1321.0"/>
      <point x="807.925373134" y="1264.68656716"/>
      <point x="793" y="1202" type="qcurve" smooth="yes"/>
      <point x="778.820895522" y="1148.26865672"/>
      <point x="781.910447761" y="987.388059701"/>
      <point x="764" y="915" type="qcurve" smooth="yes"/>
      <point x="731.910447761" y="791.865671642"/>
      <point x="578.28358209" y="684.895522388"/>
      <point x="485" y="664" type="qcurve"/>
      <point x="481" y="647" type="line"/>
      <point x="569.805970149" y="616.402985075"/>
      <point x="643.0" y="535.656716418"/>
      <point x="643" y="467" type="qcurve" smooth="yes"/>
      <point x="643.0" y="369.23880597"/>
      <point x="518.0" y="144.656716418"/>
      <point x="518" y="76" type="qcurve" smooth="yes"/>
      <point x="518.0" y="36.447761194"/>
      <point x="574.313432836" y="-10.0"/>
      <point x="637" y="-10" type="qcurve" smooth="yes"/>
      <point x="801" y="-10" type="line"/>
      <point x="762" y="-164" type="line"/>
      <point x="391" y="-164" type="line" smooth="yes"/>
      <point x="236.52238806" y="-164.0"/>
      <point x="121.0" y="-58.3432835821"/>
      <point x="121" y="23" type="qcurve" smooth="yes"/>
      <point x="121.0" y="131.208955224"/>
      <point x="252.0" y="345.701492537"/>
      <point x="252" y="436" type="qcurve" smooth="yes"/>
      <point x="252.0" y="507.641791045"/>
      <point x="139.179104478" y="580.0"/>
      <point x="25" y="580" type="qcurve"/>
      <point x="61" y="731" type="line"/>
      <point x="175.925373134" y="731.0"/>
      <point x="351.388059701" y="817.044776119"/>
      <point x="379" y="926" type="qcurve" smooth="yes"/>
      <point x="395.417910448" y="994.656716418"/>
      <point x="396.328358209" y="1160.31343284"/>
      <point x="412" y="1223" type="qcurve" smooth="yes"/>
      <point x="444.089552239" y="1352.85074627"/>
      <point x="627.014925373" y="1475.0"/>
    </contour>
  </outline>
</glyph>
<glyph name="braceright" format="1">
  <advance width="983.04"/>
  <unicode hex="007D"/>
  <outline>
    <contour>
      <point x="780" y="874" type="qcurve" smooth="yes"/>
      <point x="780.0" y="802.358208955"/>
      <point x="893.074626866" y="731.0"/>
      <point x="1008" y="731" type="qcurve"/>
      <point x="971" y="580" type="line"/>
      <point x="856.074626866" y="580.0"/>
      <point x="680.611940299" y="493.208955224"/>
      <point x="653" y="385" type="qcurve" smooth="yes"/>
      <point x="636.582089552" y="316.343283582"/>
      <point x="635.925373134" y="150.686567164"/>
      <point x="621" y="88" type="qcurve" smooth="yes"/>
      <point x="588.910447761" y="-41.8507462687"/>
      <point x="404.985074627" y="-164.0"/>
      <point x="252" y="-164" type="qcurve" smooth="yes"/>
      <point x="-139" y="-164" type="line"/>
      <point x="-100" y="-10" type="line"/>
      <point x="63" y="-10" type="line" smooth="yes"/>
      <point x="142.850746269" y="-10.0"/>
      <point x="224.328358209" y="46.3134328358"/>
      <point x="240" y="109" type="qcurve" smooth="yes"/>
      <point x="253.432835821" y="161.985074627"/>
      <point x="250.089552239" y="323.358208955"/>
      <point x="268" y="395" type="qcurve" smooth="yes"/>
      <point x="300.089552239" y="518.880597015"/>
      <point x="453.71641791" y="625.358208955"/>
      <point x="547" y="647" type="qcurve"/>
      <point x="551" y="664" type="line"/>
      <point x="462.194029851" y="694.597014925"/>
      <point x="389.0" y="775.343283582"/>
      <point x="389" y="844" type="qcurve" smooth="yes"/>
      <point x="389.0" y="941.76119403"/>
      <point x="514.0" y="1166.34328358"/>
      <point x="514" y="1235" type="qcurve" smooth="yes"/>
      <point x="514.0" y="1274.55223881"/>
      <point x="457.686567164" y="1321.0"/>
      <point x="395" y="1321" type="qcurve" smooth="yes"/>
      <point x="231" y="1321" type="line"/>
      <point x="270" y="1475" type="line"/>
      <point x="641" y="1475" type="line" smooth="yes"/>
      <point x="795.47761194" y="1475.0"/>
      <point x="911.0" y="1369.34328358"/>
      <point x="911" y="1288" type="qcurve" smooth="yes"/>
      <point x="911.0" y="1179.79104478"/>
      <point x="780.0" y="964.298507463"/>
    </contour>
  </outline>
</glyph>
<glyph name="copyright" format="1">
  <advance width="1658.88"/>
  <unicode hex="00A9"/>
  <outline>
    <contour>
      <point x="981" y="649" type="qcurve"/>
      <point x="1225" y="594" type="line"/>
      <point x="1201.86567164" y="444.0"/>
      <point x="1025.49253731" y="289.0"/>
      <point x="874" y="289" type="qcurve" smooth="yes"/>
      <point x="713.552238806" y="289.0"/>
      <point x="508.0" y="498.28358209"/>
      <point x="508" y="705" type="qcurve" smooth="yes"/>
      <point x="508" y="791" type="line" smooth="yes"/>
      <point x="508.0" y="996.970149254"/>
      <point x="713.552238806" y="1204.0"/>
      <point x="874" y="1204" type="qcurve" smooth="yes"/>
      <point x="1048.62686567" y="1204.0"/>
      <point x="1204.34328358" y="1026.34328358"/>
      <point x="1223" y="895" type="qcurve"/>
      <point x="969" y="838" type="line"/>
      <point x="959.298507463" y="927.552238806"/>
      <point x="918.776119403" y="1006.0"/>
      <point x="874" y="1006" type="qcurve" smooth="yes"/>
      <point x="824.0" y="1006.0"/>
      <point x="784.0" y="909.328358209"/>
      <point x="784" y="825" type="qcurve" smooth="yes"/>
      <point x="784" y="668" type="line" smooth="yes"/>
      <point x="784.0" y="585.164179104"/>
      <point x="824.76119403" y="489.0"/>
      <point x="877" y="489" type="qcurve" smooth="yes"/>
      <point x="922.52238806" y="489.0"/>
      <point x="967.567164179" y="560.194029851"/>
    </contour>
    <contour>
      <point x="877" y="1499" type="qcurve" smooth="yes"/>
      <point x="1203.86567164" y="1499.0"/>
      <point x="1636.0" y="1066.6119403"/>
      <point x="1636" y="739" type="qcurve" smooth="yes"/>
      <point x="1636.0" y="412.134328358"/>
      <point x="1199.6119403" y="-25.0"/>
      <point x="872" y="-25" type="qcurve" smooth="yes"/>
      <point x="545.134328358" y="-25.0"/>
      <point x="113.0" y="408.134328358"/>
      <point x="113" y="735" type="qcurve" smooth="yes"/>
      <point x="113.0" y="1062.6119403"/>
      <point x="549.388059701" y="1499.0"/>
    </contour>
    <contour>
      <point x="877" y="61" type="qcurve" smooth="yes"/>
      <point x="1170.28358209" y="61.0"/>
      <point x="1536.0" y="441.71641791"/>
      <point x="1536" y="735" type="qcurve" smooth="yes"/>
      <point x="1536.0" y="1028.28358209"/>
      <point x="1166.02985075" y="1413.0"/>
      <point x="872" y="1413" type="qcurve" smooth="yes"/>
      <point x="578.71641791" y="1413.0"/>
      <point x="213.0" y="1033.02985075"/>
      <point x="213" y="739" type="qcurve" smooth="yes"/>
      <point x="213.0" y="445.71641791"/>
      <point x="582.970149254" y="61.0"/>
    </contour>
  </outline>
</glyph>
<glyph name="guillemotleft" format="1">
  <advance width="1105.92"/>
  <unicode hex="00AB"/>
  <outline>
    <contour>
      <point x="449" y="977" type="line"/>
      <point x="676" y="977" type="line"/>
      <point x="434" y="555" type="line"/>
      <point x="467" y="133" type="line"/>
      <point x="268" y="133" type="line"/>
      <point x="20" y="555" type="line"/>
    </contour>
    <contour>
      <point x="932" y="977" type="line"/>
      <point x="1159" y="977" type="line"/>
      <point x="918" y="555" type="line"/>
      <point x="950" y="133" type="line"/>
      <point x="752" y="133" type="line"/>
      <point x="504" y="555" type="line"/>
    </contour>
  </outline>
</glyph>
<glyph name="degree" format="1">
  <advance width="819.2"/>
  <unicode hex="00B0"/>
  <outline>
    <contour>
      <point x="516" y="1483" type="qcurve" smooth="yes"/>
      <point x="661.52238806" y="1483.0"/>
      <point x="854.0" y="1293.7761194"/>
      <point x="854" y="1149" type="qcurve" smooth="yes"/>
      <point x="854.0" y="1003.47761194"/>
      <point x="661.52238806" y="815.0"/>
      <point x="516" y="815" type="qcurve" smooth="yes"/>
      <point x="371.223880597" y="815.0"/>
      <point x="178.0" y="1003.47761194"/>
      <point x="178" y="1149" type="qcurve" smooth="yes"/>
      <point x="178.0" y="1293.7761194"/>
      <point x="371.223880597" y="1483.0"/>
    </contour>
    <contour>
      <point x="516" y="979" type="qcurve" smooth="yes"/>
      <point x="586.149253731" y="979.0"/>
      <point x="668.0" y="1077.35820896"/>
      <point x="668" y="1149" type="qcurve" smooth="yes"/>
      <point x="668.0" y="1220.64179104"/>
      <point x="586.149253731" y="1319.0"/>
      <point x="516" y="1319" type="qcurve" smooth="yes"/>
      <point x="445.850746269" y="1319.0"/>
      <point x="365.0" y="1220.64179104"/>
      <point x="365" y="1149" type="qcurve" smooth="yes"/>
      <point x="365.0" y="1077.35820896"/>
      <point x="445.850746269" y="979.0"/>
    </contour>
  </outline>
</glyph>
<glyph name="guillemotright" format="1">
  <advance width="1105.92"/>
  <unicode hex="00BB"/>
  <outline>
    <contour>
      <point x="354" y="977" type="line"/>
      <point x="602" y="555" type="line"/>
      <point x="174" y="133" type="line"/>
      <point x="-53" y="133" type="line"/>
      <point x="188" y="555" type="line"/>
      <point x="156" y="977" type="line"/>
    </contour>
    <contour>
      <point x="838" y="977" type="line"/>
      <point x="1085" y="555" type="line"/>
      <point x="657" y="133" type="line"/>
      <point x="430" y="133" type="line"/>
      <point x="672" y="555" type="line"/>
      <point x="639" y="977" type="line"/>
    </contour>
  </outline>
</glyph>
<glyph name="questiondown" format="1">
  <advance width="1089.536"/>
  <unicode hex="00BF"/>
  <outline>
    <contour>
      <point x="750" y="502" type="qcurve"/>
      <point x="1030" y="332" type="line"/>
      <point x="920.298507463" y="155.880597015"/>
      <point x="634.402985075" y="-14.0"/>
      <point x="465" y="-14" type="qcurve" smooth="yes"/>
      <point x="258.28358209" y="-14.0"/>
      <point x="-4.0" y="179.552238806"/>
      <point x="-4" y="340" type="qcurve" smooth="yes"/>
      <point x="-4.0" y="510.895522388"/>
      <point x="182.537313433" y="725.119402985"/>
      <point x="340" y="799" type="qcurve" smooth="yes"/>
      <point x="448.208955224" y="849.0"/>
      <point x="545.119402985" y="914.76119403"/>
      <point x="569" y="967" type="qcurve"/>
      <point x="844" y="967" type="line"/>
      <point x="838.029850746" y="822.970149254"/>
      <point x="723.313432836" y="661.641791045"/>
      <point x="586" y="590" type="qcurve" smooth="yes"/>
      <point x="504.656716418" y="546.71641791"/>
      <point x="412.0" y="454.731343284"/>
      <point x="412" y="401" type="qcurve" smooth="yes"/>
      <point x="412.0" y="355.47761194"/>
      <point x="460.23880597" y="303.0"/>
      <point x="508" y="303" type="qcurve" smooth="yes"/>
      <point x="555.014925373" y="303.0"/>
      <point x="673.134328358" y="391.552238806"/>
    </contour>
    <contour>
      <point x="782" y="1499" type="qcurve" smooth="yes"/>
      <point x="873.791044776" y="1499.0"/>
      <point x="997.0" y="1375.79104478"/>
      <point x="997" y="1284" type="qcurve" smooth="yes"/>
      <point x="997.0" y="1192.20895522"/>
      <point x="873.791044776" y="1069.0"/>
      <point x="782" y="1069" type="qcurve" smooth="yes"/>
      <point x="690.208955224" y="1069.0"/>
      <point x="567.0" y="1192.20895522"/>
      <point x="567" y="1284" type="qcurve" smooth="yes"/>
      <point x="567.0" y="1375.79104478"/>
      <point x="690.208955224" y="1499.0"/>
    </contour>
  </outline>
</glyph>
<glyph name="AE" format="1">
  <advance width="2011.136"/>
  <unicode hex="00C6"/>
  <outline>
    <contour>
      <point x="864" y="1475" type="line"/>
      <point x="2167" y="1475" type="line"/>
      <point x="2083" y="1135" type="line"/>
      <point x="1522" y="1135" type="line"/>
      <point x="1466" y="915" type="line"/>
      <point x="1847" y="915" type="line"/>
      <point x="1767" y="596" type="line"/>
      <point x="1386" y="596" type="line"/>
      <point x="1323" y="340" type="line"/>
      <point x="1909" y="340" type="line"/>
      <point x="1823" y="0" type="line"/>
      <point x="815" y="0" type="line"/>
      <point x="889" y="295" type="line"/>
      <point x="504" y="295" type="line"/>
      <point x="315" y="0" type="line"/>
      <point x="-147" y="0" type="line"/>
    </contour>
    <contour>
      <point x="958" y="573" type="line"/>
      <point x="1104" y="1157" type="line"/>
      <point x="1057" y="1157" type="line"/>
      <point x="682" y="573" type="line"/>
    </contour>
  </outline>
</glyph>
<glyph name="Oslash" format="1">
  <advance width="1351.68"/>
  <unicode hex="00D8"/>
  <outline>
    <contour>
      <point x="1298" y="1673" type="line"/>
      <point x="1538" y="1673" type="line"/>
      <point x="1266" y="1327" type="line"/>
      <point x="1313.01492537" y="1268.79104478"/>
      <point x="1364.0" y="1109.76119403"/>
      <point x="1364" y="1012" type="qcurve" smooth="yes"/>
      <point x="1364" y="1001" type="line" smooth="yes"/>
      <point x="1364.0" y="949.507462687"/>
      <point x="1345.17910448" y="772.194029851"/>
      <point x="1331" y="711" type="qcurve" smooth="yes"/>
      <point x="1243.68656716" y="320.701492537"/>
      <point x="893.253731343" y="-25.0"/>
      <point x="594" y="-25" type="qcurve" smooth="yes"/>
      <point x="512.656716418" y="-25.0"/>
      <point x="369.208955224" y="6.40298507463"/>
      <point x="311" y="37" type="qcurve"/>
      <point x="145" y="-195" type="line"/>
      <point x="-94" y="-195" type="line"/>
      <point x="176" y="147" type="line"/>
      <point x="128.985074627" y="205.208955224"/>
      <point x="78.0" y="365.23880597"/>
      <point x="78" y="463" type="qcurve" smooth="yes"/>
      <point x="78" y="473" type="line" smooth="yes"/>
      <point x="78.0" y="525.23880597"/>
      <point x="96.8208955224" y="702.805970149"/>
      <point x="111" y="764" type="qcurve" smooth="yes"/>
      <point x="197.567164179" y="1153.55223881"/>
      <point x="548.0" y="1499.0"/>
      <point x="848" y="1499" type="qcurve" smooth="yes"/>
      <point x="928.597014925" y="1499.0"/>
      <point x="1072.53731343" y="1468.59701493"/>
      <point x="1130" y="1438" type="qcurve"/>
    </contour>
    <contour>
      <point x="492" y="537" type="qcurve"/>
      <point x="924" y="1145" type="line"/>
      <point x="906.835820896" y="1164.40298507"/>
      <point x="855.089552239" y="1184.0"/>
      <point x="823" y="1184" type="qcurve" smooth="yes"/>
      <point x="737.925373134" y="1184.0"/>
      <point x="614.701492537" y="1032.1641791"/>
      <point x="555" y="815" type="qcurve" smooth="yes"/>
      <point x="528.880597015" y="720.223880597"/>
      <point x="499.462686567" y="585.507462687"/>
    </contour>
    <contour>
      <point x="887" y="659" type="qcurve" smooth="yes"/>
      <point x="913.119402985" y="752.28358209"/>
      <point x="942.537313433" y="888.23880597"/>
      <point x="950" y="936" type="qcurve"/>
      <point x="518" y="330" type="line"/>
      <point x="536.656716418" y="309.850746269"/>
      <point x="585.910447761" y="291.0"/>
      <point x="618" y="291" type="qcurve" smooth="yes"/>
      <point x="703.820895522" y="291.0"/>
      <point x="827.298507463" y="442.582089552"/>
    </contour>
  </outline>
</glyph>
<glyph name="Thorn" format="1">
  <advance width="1230.848"/>
  <unicode hex="00DE"/>
  <outline>
    <contour>
      <point x="741" y="1233" type="line" smooth="yes"/>
      <point x="996.223880597" y="1233.0"/>
      <point x="1255.0" y="1028.53731343"/>
      <point x="1255" y="836" type="qcurve" smooth="yes"/>
      <point x="1255.0" y="580.776119403"/>
      <point x="899.76119403" y="283.0"/>
      <point x="602" y="283" type="qcurve" smooth="yes"/>
      <point x="461" y="283" type="line"/>
      <point x="389" y="0" type="line"/>
      <point x="-53" y="0" type="line"/>
      <point x="315" y="1475" type="line"/>
      <point x="758" y="1475" type="line"/>
      <point x="696" y="1233" type="line"/>
    </contour>
    <contour>
      <point x="610" y="598" type="line" smooth="yes"/>
      <point x="704.776119403" y="598.0"/>
      <point x="821.0" y="705.179104478"/>
      <point x="821" y="791" type="qcurve" smooth="yes"/>
      <point x="821.0" y="865.626865672"/>
      <point x="731.805970149" y="926.0"/>
      <point x="643" y="926" type="qcurve" smooth="yes"/>
      <point x="602" y="926" type="line"/>
      <point x="520" y="598" type="line"/>
    </contour>
  </outline>
</glyph>
<glyph name="germandbls" format="1">
  <advance width="1288.192"/>
  <unicode hex="00DF"/>
  <outline>
    <contour>
      <point x="850" y="1554" type="qcurve" smooth="yes"/>
      <point x="1071.64179104" y="1554.0"/>
      <point x="1313.0" y="1368.76119403"/>
      <point x="1313" y="1221" type="qcurve" smooth="yes"/>
      <point x="1313.0" y="1063.53731343"/>
      <point x="1117.2238806" y="886.537313433"/>
      <point x="1012" y="844" type="qcurve"/>
      <point x="1008" y="831" type="line"/>
      <point x="1102.7761194" y="773.537313433"/>
      <point x="1227.0" y="585.358208955"/>
      <point x="1227" y="457" type="qcurve" smooth="yes"/>
      <point x="1227.0" y="210.731343284"/>
      <point x="913.104477612" y="-10.0"/>
      <point x="684" y="-10" type="qcurve" smooth="yes"/>
      <point x="601.164179104" y="-10.0"/>
      <point x="495.537313433" y="-0.955223880597"/>
      <point x="453" y="8" type="qcurve"/>
      <point x="543" y="272" type="line"/>
      <point x="565.388059701" y="267.52238806"/>
      <point x="602.850746269" y="262.0"/>
      <point x="623" y="262" type="qcurve" smooth="yes"/>
      <point x="711.059701493" y="262.0"/>
      <point x="813.0" y="373.23880597"/>
      <point x="813" y="471" type="qcurve" smooth="yes"/>
      <point x="813.0" y="552.343283582"/>
      <point x="728.791044776" y="669.71641791"/>
      <point x="637" y="713" type="qcurve"/>
      <point x="700" y="961" type="line"/>
      <point x="785.820895522" y="977.417910448"/>
      <point x="897.0" y="1092.17910448"/>
      <point x="897" y="1178" type="qcurve" smooth="yes"/>
      <point x="897.0" y="1226.50746269"/>
      <point x="842.492537313" y="1286.0"/>
      <point x="791" y="1286" type="qcurve" smooth="yes"/>
      <point x="726.820895522" y="1286.0"/>
      <point x="655.149253731" y="1196.8358209"/>
      <point x="635" y="1114" type="qcurve" smooth="yes"/>
      <point x="358" y="0" type="line"/>
      <point x="-59" y="0" type="line"/>
      <point x="221" y="1135" type="line" smooth="yes"/>
      <point x="277.71641791" y="1362.6119403"/>
      <point x="587.313432836" y="1554.0"/>
    </contour>
  </outline>
</glyph>
<glyph name="eth" format="1">
  <advance width="1126.4"/>
  <unicode hex="00F0"/>
  <outline>
    <contour>
      <point x="944" y="1462" type="qcurve"/>
      <point x="1249" y="1561" type="line"/>
      <point x="1217" y="1432" type="line"/>
      <point x="1012" y="1366" type="line"/>
      <point x="1070.20895522" y="1274.20895522"/>
      <point x="1135.0" y="1056.3880597"/>
      <point x="1135" y="934" type="qcurve" smooth="yes"/>
      <point x="1135" y="924" type="line" smooth="yes"/>
      <point x="1135.0" y="844.149253731"/>
      <point x="1104.55223881" y="665.462686567"/>
      <point x="1065" y="508" type="qcurve" smooth="yes"/>
      <point x="999.328358209" y="248.298507463"/>
      <point x="708.28358209" y="-20.0"/>
      <point x="465" y="-20" type="qcurve" smooth="yes"/>
      <point x="252.313432836" y="-20.0"/>
      <point x="25.0" y="183.985074627"/>
      <point x="25" y="381" type="qcurve" smooth="yes"/>
      <point x="25" y="385" type="line" smooth="yes"/>
      <point x="25.0" y="426.044776119"/>
      <point x="43.5671641791" y="545.28358209"/>
      <point x="57" y="602" type="qcurve" smooth="yes"/>
      <point x="121.179104478" y="858.71641791"/>
      <point x="380.104477612" y="1110.0"/>
      <point x="551" y="1110" type="qcurve" smooth="yes"/>
      <point x="650.253731343" y="1110.0"/>
      <point x="770.432835821" y="1033.14925373"/>
      <point x="807" y="963" type="qcurve"/>
      <point x="815" y="963" type="line"/>
      <point x="816.492537313" y="1034.64179104"/>
      <point x="760.492537313" y="1192.62686567"/>
      <point x="709" y="1268" type="qcurve"/>
      <point x="426" y="1178" type="line"/>
      <point x="459" y="1307" type="line"/>
      <point x="629" y="1362" type="line"/>
      <point x="601.388059701" y="1389.6119403"/>
      <point x="536.567164179" y="1441.6119403"/>
      <point x="500" y="1464" type="qcurve"/>
      <point x="856" y="1561" type="line"/>
      <point x="879.134328358" y="1537.86567164"/>
      <point x="924.597014925" y="1488.11940299"/>
    </contour>
    <contour>
      <point x="653" y="555" type="qcurve" smooth="yes"/>
      <point x="676.134328358" y="643.805970149"/>
      <point x="696.0" y="763.417910448"/>
      <point x="696" y="797" type="qcurve" smooth="yes"/>
      <point x="696" y="801" type="line" smooth="yes"/>
      <point x="696.0" y="851.0"/>
      <point x="666.582089552" y="889.0"/>
      <point x="633" y="889" type="qcurve" smooth="yes"/>
      <point x="582.253731343" y="889.0"/>
      <point x="511.537313433" y="721.417910448"/>
      <point x="469" y="555" type="qcurve" smooth="yes"/>
      <point x="445.865671642" y="466.194029851"/>
      <point x="426.0" y="346.582089552"/>
      <point x="426" y="313" type="qcurve" smooth="yes"/>
      <point x="426" y="309" type="line" smooth="yes"/>
      <point x="426.0" y="259.0"/>
      <point x="455.417910448" y="221.0"/>
      <point x="489" y="221" type="qcurve" smooth="yes"/>
      <point x="539.746268657" y="221.0"/>
      <point x="610.462686567" y="388.582089552"/>
    </contour>
  </outline>
</glyph>
<glyph name="divide" format="1">
  <advance width="1228.8"/>
  <unicode hex="00F7"/>
  <outline>
    <contour>
      <point x="657" y="438" type="qcurve" smooth="yes"/>
      <point x="748.791044776" y="438.0"/>
      <point x="872.0" y="314.791044776"/>
      <point x="872" y="223" type="qcurve" smooth="yes"/>
      <point x="872.0" y="131.208955224"/>
      <point x="748.791044776" y="8.0"/>
      <point x="657" y="8" type="qcurve" smooth="yes"/>
      <point x="565.955223881" y="8.0"/>
      <point x="442.0" y="131.208955224"/>
      <point x="442" y="223" type="qcurve" smooth="yes"/>
      <point x="442.0" y="314.791044776"/>
      <point x="565.955223881" y="438.0"/>
    </contour>
    <contour>
      <point x="657" y="1446" type="qcurve" smooth="yes"/>
      <point x="748.791044776" y="1446.0"/>
      <point x="872.0" y="1322.79104478"/>
      <point x="872" y="1231" type="qcurve" smooth="yes"/>
      <point x="872.0" y="1139.20895522"/>
      <point x="748.791044776" y="1016.0"/>
      <point x="657" y="1016" type="qcurve" smooth="yes"/>
      <point x="565.955223881" y="1016.0"/>
      <point x="442.0" y="1139.20895522"/>
      <point x="442" y="1231" type="qcurve" smooth="yes"/>
      <point x="442.0" y="1322.79104478"/>
      <point x="565.955223881" y="1446.0"/>
    </contour>
    <contour>
      <point x="1204" y="893" type="line"/>
      <point x="1204" y="561" type="line"/>
      <point x="111" y="561" type="line"/>
      <point x="111" y="893" type="line"/>
    </contour>
  </outline>
</glyph>
<glyph name="thorn" format="1">
  <advance width="1161.216"/>
  <unicode hex="00FE"/>
  <outline>
    <contour>
      <point x="1143" y="842" type="qcurve" smooth="yes"/>
      <point x="1143" y="838" type="line" smooth="yes"/>
      <point x="1143.0" y="532.029850746"/>
      <point x="860.059701493" y="-14.0"/>
      <point x="672" y="-14" type="qcurve" smooth="yes"/>
      <point x="583.194029851" y="-14.0"/>
      <point x="473.671641791" y="64.2388059701"/>
      <point x="408" y="162" type="qcurve"/>
      <point x="399" y="162" type="line"/>
      <point x="262" y="-385" type="line"/>
      <point x="-156" y="-385" type="line"/>
      <point x="313" y="1495" type="line"/>
      <point x="743" y="1544" type="line"/>
      <point x="586" y="915" type="line"/>
      <point x="594" y="915" type="line"/>
      <point x="690.268656716" y="1022.46268657"/>
      <point x="841.164179104" y="1124.0"/>
      <point x="924" y="1124" type="qcurve" smooth="yes"/>
      <point x="1026.23880597" y="1124.0"/>
      <point x="1143.0" y="976.328358209"/>
    </contour>
    <contour>
      <point x="514" y="231" type="qcurve" smooth="yes"/>
      <point x="599.820895522" y="231.0"/>
      <point x="727.0" y="618.850746269"/>
      <point x="727" y="739" type="qcurve" smooth="yes"/>
      <point x="727.0" y="801.686567164"/>
      <point x="699.104477612" y="846.0"/>
      <point x="670" y="846" type="qcurve" smooth="yes"/>
      <point x="584.179104478" y="846.0"/>
      <point x="457.0" y="458.895522388"/>
      <point x="457" y="338" type="qcurve" smooth="yes"/>
      <point x="457.0" y="275.313432836"/>
      <point x="484.895522388" y="231.0"/>
    </contour>
  </outline>
</glyph>
<glyph name="Lslash" format="1">
  <advance width="1179.648"/>
  <unicode hex="0141"/>
  <outline>
    <contour>
      <point x="551" y="369" type="line"/>
      <point x="1096" y="369" type="line"/>
      <point x="1004" y="0" type="line"/>
      <point x="29" y="0" type="line"/>
      <point x="164" y="537" type="line"/>
      <point x="12" y="483" type="line"/>
      <point x="96" y="823" type="line"/>
      <point x="248" y="877" type="line"/>
      <point x="397" y="1475" type="line"/>
      <point x="827" y="1475" type="line"/>
      <point x="721" y="1044" type="line"/>
      <point x="987" y="1141" type="line"/>
      <point x="901" y="801" type="line"/>
      <point x="635" y="707" type="line"/>
    </contour>
  </outline>
</glyph>
<glyph name="oe" format="1">
  <advance width="1691.648"/>
  <unicode hex="0153"/>
  <outline>
    <contour>
      <point x="1296" y="1130" type="qcurve" smooth="yes"/>
      <point x="1487.04477612" y="1130.0"/>
      <point x="1671.0" y="937.373134328"/>
      <point x="1671" y="762" type="qcurve" smooth="yes"/>
      <point x="1671.0" y="694.835820896"/>
      <point x="1644.11940299" y="546.791044776"/>
      <point x="1618" y="455" type="qcurve"/>
      <point x="1034" y="455" type="line"/>
      <point x="1034.0" y="440.820895522"/>
      <point x="1032.0" y="418.955223881"/>
      <point x="1032" y="410" type="qcurve" smooth="yes"/>
      <point x="1032" y="406" type="line" smooth="yes"/>
      <point x="1032.0" y="326.149253731"/>
      <point x="1124.92537313" y="264.0"/>
      <point x="1210" y="264" type="qcurve" smooth="yes"/>
      <point x="1262.23880597" y="264.0"/>
      <point x="1427.73134328" y="294.388059701"/>
      <point x="1524" y="322" type="qcurve"/>
      <point x="1548" y="53" type="line"/>
      <point x="1427.10447761" y="17.9253731343"/>
      <point x="1249.17910448" y="-14.0"/>
      <point x="1135" y="-14" type="qcurve" smooth="yes"/>
      <point x="1001.41791045" y="-14.0"/>
      <point x="846.074626866" y="68.6865671642"/>
      <point x="811" y="156" type="qcurve"/>
      <point x="795" y="156" type="line"/>
      <point x="730.820895522" y="71.671641791"/>
      <point x="549.373134328" y="-20.0"/>
      <point x="424" y="-20" type="qcurve" smooth="yes"/>
      <point x="253.104477612" y="-20.0"/>
      <point x="25.0" y="183.985074627"/>
      <point x="25" y="381" type="qcurve" smooth="yes"/>
      <point x="25" y="385" type="line" smooth="yes"/>
      <point x="25.0" y="426.044776119"/>
      <point x="43.5671641791" y="545.28358209"/>
      <point x="57" y="602" type="qcurve" smooth="yes"/>
      <point x="122.671641791" y="861.701492537"/>
      <point x="412.791044776" y="1130.0"/>
      <point x="621" y="1130" type="qcurve" smooth="yes"/>
      <point x="739.656716418" y="1130.0"/>
      <point x="886.71641791" y="1043.59701493"/>
      <point x="930" y="963" type="qcurve"/>
      <point x="944" y="963" type="line"/>
      <point x="1014.14925373" y="1045.08955224"/>
      <point x="1174.35820896" y="1130.0"/>
    </contour>
    <contour>
      <point x="653" y="555" type="qcurve" smooth="yes"/>
      <point x="676.134328358" y="643.805970149"/>
      <point x="696.0" y="763.417910448"/>
      <point x="696" y="797" type="qcurve" smooth="yes"/>
      <point x="696" y="801" type="line" smooth="yes"/>
      <point x="696.0" y="851.0"/>
      <point x="666.582089552" y="889.0"/>
      <point x="633" y="889" type="qcurve" smooth="yes"/>
      <point x="582.253731343" y="889.0"/>
      <point x="511.537313433" y="721.417910448"/>
      <point x="469" y="555" type="qcurve" smooth="yes"/>
      <point x="445.865671642" y="466.194029851"/>
      <point x="426.0" y="346.582089552"/>
      <point x="426" y="313" type="qcurve" smooth="yes"/>
      <point x="426" y="309" type="line" smooth="yes"/>
      <point x="426.0" y="259.0"/>
      <point x="455.417910448" y="221.0"/>
      <point x="489" y="221" type="qcurve" smooth="yes"/>
      <point x="539.746268657" y="221.0"/>
      <point x="610.462686567" y="388.582089552"/>
    </contour>
    <contour>
      <point x="1274" y="608" type="line"/>
      <point x="1288.92537313" y="663.223880597"/>
      <point x="1307.0" y="761.895522388"/>
      <point x="1307" y="791" type="qcurve" smooth="yes"/>
      <point x="1307.0" y="843.985074627"/>
      <point x="1275.05970149" y="897.0"/>
      <point x="1237" y="897" type="qcurve" smooth="yes"/>
      <point x="1184.76119403" y="897.0"/>
      <point x="1097.08955224" y="728.895522388"/>
      <point x="1065" y="608" type="qcurve"/>
    </contour>
  </outline>
</glyph>
<glyph name="florin" format="1">
  <advance width="1024.0"/>
  <unicode hex="0192"/>
  <outline>
    <contour>
      <point x="829" y="1487" type="qcurve" smooth="yes"/>
      <point x="934.970149254" y="1487.0"/>
      <point x="1081.89552239" y="1465.6119403"/>
      <point x="1161" y="1438" type="qcurve"/>
      <point x="1096" y="1171" type="line"/>
      <point x="1051.2238806" y="1191.14925373"/>
      <point x="979.014925373" y="1210.0"/>
      <point x="932" y="1210" type="qcurve" smooth="yes"/>
      <point x="867.820895522" y="1210.0"/>
      <point x="809.925373134" y="1137.68656716"/>
      <point x="795" y="1075" type="qcurve" smooth="yes"/>
      <point x="770" y="975" type="line"/>
      <point x="1010" y="975" type="line"/>
      <point x="942" y="700" type="line"/>
      <point x="702" y="700" type="line"/>
      <point x="522" y="-25" type="line" smooth="yes"/>
      <point x="470.507462687" y="-232.462686567"/>
      <point x="234.611940299" y="-389.0"/>
      <point x="57" y="-389" type="qcurve" smooth="yes"/>
      <point x="-31.0597014925" y="-389.0"/>
      <point x="-169.507462687" y="-369.164179104"/>
      <point x="-221" y="-352" type="qcurve"/>
      <point x="-162" y="-113" type="line"/>
      <point x="-131.402985075" y="-123.447761194"/>
      <point x="-76.1044776119" y="-133.0"/>
      <point x="-47" y="-133" type="qcurve" smooth="yes"/>
      <point x="12.7014925373" y="-133.0"/>
      <point x="92.8507462687" y="-71.6119402985"/>
      <point x="113" y="6" type="qcurve" smooth="yes"/>
      <point x="285" y="700" type="line"/>
      <point x="98" y="700" type="line"/>
      <point x="166" y="975" type="line"/>
      <point x="354" y="975" type="line"/>
      <point x="391" y="1126" type="line" smooth="yes"/>
      <point x="437.268656716" y="1317.04477612"/>
      <point x="650.641791045" y="1487.0"/>
    </contour>
  </outline>
</glyph>
<glyph name="circumflex" format="1">
  <advance width="1024.0"/>
  <unicode hex="02C6"/>
  <outline>
    <contour>
      <point x="909" y="1563" type="line"/>
      <point x="1042" y="1212" type="line"/>
      <point x="860" y="1212" type="line"/>
      <point x="721" y="1354" type="line"/>
      <point x="512" y="1212" type="line"/>
      <point x="309" y="1212" type="line"/>
      <point x="614" y="1563" type="line"/>
    </contour>
  </outline>
</glyph>
<glyph name="caron" format="1">
  <advance width="1024.0"/>
  <unicode hex="02C7"/>
  <outline>
    <contour>
      <point x="915" y="1563" type="line"/>
      <point x="1118" y="1563" type="line"/>
      <point x="813" y="1212" type="line"/>
      <point x="518" y="1212" type="line"/>
      <point x="385" y="1563" type="line"/>
      <point x="567" y="1563" type="line"/>
      <point x="707" y="1421" type="line"/>
    </contour>
  </outline>
</glyph>
<glyph name="breve" format="1">
  <advance width="1024.0"/>
  <unicode hex="02D8"/>
  <outline>
    <contour>
      <point x="924" y="1563" type="qcurve"/>
      <point x="1081" y="1563" type="line"/>
      <point x="1038.46268657" y="1397.32835821"/>
      <point x="850.865671642" y="1206.0"/>
      <point x="674" y="1206" type="qcurve" smooth="yes"/>
      <point x="526.985074627" y="1206.0"/>
      <point x="387.0" y="1334.56716418"/>
      <point x="387" y="1448" type="qcurve" smooth="yes"/>
      <point x="387.0" y="1474.11940299"/>
      <point x="395.029850746" y="1532.40298507"/>
      <point x="401" y="1563" type="qcurve"/>
      <point x="551" y="1563" type="line"/>
      <point x="551" y="1534" type="line" smooth="yes"/>
      <point x="551.0" y="1480.26865672"/>
      <point x="613.432835821" y="1407.0"/>
      <point x="700" y="1407" type="qcurve" smooth="yes"/>
      <point x="797.76119403" y="1407.0"/>
      <point x="896.388059701" y="1495.8358209"/>
    </contour>
  </outline>
</glyph>
<glyph name="hungarumlaut" format="1">
  <advance width="1024.0"/>
  <unicode hex="02DD"/>
  <outline>
    <contour>
      <point x="377" y="1522" type="line"/>
      <point x="799" y="1522" type="line"/>
      <point x="410" y="1212" type="line"/>
      <point x="168" y="1212" type="line"/>
    </contour>
    <contour>
      <point x="856" y="1522" type="line"/>
      <point x="1278" y="1522" type="line"/>
      <point x="889" y="1212" type="line"/>
      <point x="647" y="1212" type="line"/>
    </contour>
  </outline>
</glyph>
<glyph name="Euro" format="1">
  <advance width="1286.144"/>
  <unicode hex="20AC"/>
  <outline>
    <contour>
      <point x="1169" y="213" type="line"/>
      <point x="1037.65671642" y="90.6119402985"/>
      <point x="779.194029851" y="-25.0"/>
      <point x="618" y="-25" type="qcurve" smooth="yes"/>
      <point x="362.776119403" y="-25.0"/>
      <point x="78.0" y="227.179104478"/>
      <point x="78" y="463" type="qcurve" smooth="yes"/>
      <point x="78" y="473" type="line" smooth="yes"/>
      <point x="78.0" y="532.701492537"/>
      <point x="96.3134328358" y="714.268656716"/>
      <point x="109" y="768" type="qcurve" smooth="yes"/>
      <point x="194.074626866" y="1141.13432836"/>
      <point x="536.985074627" y="1499.0"/>
      <point x="834" y="1499" type="qcurve" smooth="yes"/>
      <point x="1050.41791045" y="1499.0"/>
      <point x="1293.43283582" y="1346.0"/>
      <point x="1380" y="1196" type="qcurve"/>
      <point x="1061" y="985" type="line"/>
      <point x="1001.29850746" y="1093.20895522"/>
      <point x="892.850746269" y="1192.0"/>
      <point x="813" y="1192" type="qcurve" smooth="yes"/>
      <point x="735.388059701" y="1192.0"/>
      <point x="622.537313433" y="1077.37313433"/>
      <point x="580" y="952" type="qcurve"/>
      <point x="961" y="952" type="line"/>
      <point x="920" y="788" type="line"/>
      <point x="535" y="788" type="line"/>
      <point x="526.791044776" y="754.417910448"/>
      <point x="514.47761194" y="692.865671642"/>
      <point x="510" y="666" type="qcurve"/>
      <point x="889" y="666" type="line"/>
      <point x="848" y="502" type="line"/>
      <point x="489" y="502" type="line"/>
      <point x="489" y="459" type="line" smooth="yes"/>
      <point x="489.0" y="379.149253731"/>
      <point x="580.686567164" y="279.0"/>
      <point x="668" y="279" type="qcurve" smooth="yes"/>
      <point x="736.656716418" y="279.0"/>
      <point x="876.253731343" y="362.223880597"/>
      <point x="977" y="457" type="qcurve"/>
    </contour>
  </outline>
</glyph>
<glyph name="uni2117" format="1">
  <advance width="1658.88"/>
  <unicode hex="2117"/>
  <outline>
    <contour>
      <point x="877" y="1499" type="qcurve" smooth="yes"/>
      <point x="1203.86567164" y="1499.0"/>
      <point x="1636.0" y="1066.6119403"/>
      <point x="1636" y="739" type="qcurve" smooth="yes"/>
      <point x="1636.0" y="412.134328358"/>
      <point x="1199.6119403" y="-25.0"/>
      <point x="872" y="-25" type="qcurve" smooth="yes"/>
      <point x="545.134328358" y="-25.0"/>
      <point x="113.0" y="408.134328358"/>
      <point x="113" y="735" type="qcurve" smooth="yes"/>
      <point x="113.0" y="1062.6119403"/>
      <point x="549.388059701" y="1499.0"/>
    </contour>
    <contour>
      <point x="877" y="61" type="qcurve" smooth="yes"/>
      <point x="1170.28358209" y="61.0"/>
      <point x="1536.0" y="441.71641791"/>
      <point x="1536" y="735" type="qcurve" smooth="yes"/>
      <point x="1536.0" y="1028.28358209"/>
      <point x="1166.02985075" y="1413.0"/>
      <point x="872" y="1413" type="qcurve" smooth="yes"/>
      <point x="578.71641791" y="1413.0"/>
      <point x="213.0" y="1033.02985075"/>
      <point x="213" y="739" type="qcurve" smooth="yes"/>
      <point x="213.0" y="445.71641791"/>
      <point x="582.970149254" y="61.0"/>
    </contour>
    <contour>
      <point x="924" y="1186" type="line" smooth="yes"/>
      <point x="1077.73134328" y="1186.0"/>
      <point x="1266.0" y="1052.04477612"/>
      <point x="1266" y="911" type="qcurve" smooth="yes"/>
      <point x="1266.0" y="763.23880597"/>
      <point x="1079.65671642" y="616.0"/>
      <point x="911" y="616" type="qcurve" smooth="yes"/>
      <point x="852" y="616" type="line"/>
      <point x="852" y="301" type="line"/>
      <point x="586" y="301" type="line"/>
      <point x="586" y="1186" type="line"/>
    </contour>
    <contour>
      <point x="895" y="805" type="line" smooth="yes"/>
      <point x="947.23880597" y="805.0"/>
      <point x="1001.0" y="860.492537313"/>
      <point x="1001" y="909" type="qcurve" smooth="yes"/>
      <point x="1001.0" y="955.268656716"/>
      <point x="945.746268657" y="1001.0"/>
      <point x="895" y="1001" type="qcurve" smooth="yes"/>
      <point x="842" y="1001" type="line"/>
      <point x="842" y="805" type="line"/>
    </contour>
  </outline>
</glyph>
<glyph name="trademark" format="1">
  <advance width="1597.44"/>
  <unicode hex="2122"/>
  <outline>
    <contour>
      <point x="1442" y="1475" type="line"/>
      <point x="1755" y="1475" type="line"/>
      <point x="1583" y="782" type="line"/>
      <point x="1374" y="782" type="line"/>
      <point x="1487" y="1237" type="line"/>
      <point x="1483" y="1237" type="line"/>
      <point x="1260" y="782" type="line"/>
      <point x="1067" y="782" type="line"/>
      <point x="1071" y="1237" type="line"/>
      <point x="1067" y="1237" type="line"/>
      <point x="954" y="782" type="line"/>
      <point x="758" y="782" type="line"/>
      <point x="930" y="1475" type="line"/>
      <point x="1241" y="1475" type="line"/>
      <point x="1237" y="1069" type="line"/>
      <point x="1241" y="1069" type="line"/>
    </contour>
    <contour>
      <point x="283" y="1475" type="line"/>
      <point x="846" y="1475" type="line"/>
      <point x="801" y="1292" type="line"/>
      <point x="631" y="1292" type="line"/>
      <point x="504" y="782" type="line"/>
      <point x="281" y="782" type="line"/>
      <point x="408" y="1292" type="line"/>
      <point x="238" y="1292" type="line"/>
    </contour>
  </outline>
</glyph>
<glyph name="a.salt" format="1">
  <advance width="1112.064"/>
  <outline>
    <contour>
      <point x="694" y="1122" type="qcurve" smooth="yes"/>
      <point x="879.074626866" y="1122.0"/>
      <point x="1065.0" y="978.358208955"/>
      <point x="1065" y="850" type="qcurve" smooth="yes"/>
      <point x="1065.0" y="819.402985075"/>
      <point x="1055.95522388" y="744.552238806"/>
      <point x="1047" y="705" type="qcurve" smooth="yes"/>
      <point x="928" y="229" type="line" smooth="yes"/>
      <point x="925.014925373" y="217.059701493"/>
      <point x="920.0" y="191.701492537"/>
      <point x="920" y="182" type="qcurve" smooth="yes"/>
      <point x="920.0" y="155.880597015"/>
      <point x="955.955223881" y="134.970149254"/>
      <point x="997" y="129" type="qcurve"/>
      <point x="963" y="-10" type="line"/>
      <point x="747.328358209" y="-10.0"/>
      <point x="564.910447761" y="63.8656716418"/>
      <point x="547" y="137" type="qcurve"/>
      <point x="535" y="137" type="line"/>
      <point x="446.194029851" y="63.8656716418"/>
      <point x="301.805970149" y="-10.0"/>
      <point x="213" y="-10" type="qcurve" smooth="yes"/>
      <point x="98.0746268657" y="-10.0"/>
      <point x="-35.0" y="107.328358209"/>
      <point x="-35" y="223" type="qcurve" smooth="yes"/>
      <point x="-35.0" y="387.925373134"/>
      <point x="267.417910448" y="634.611940299"/>
      <point x="651" y="657" type="qcurve"/>
      <point x="666" y="717" type="line" smooth="yes"/>
      <point x="668.985074627" y="728.940298507"/>
      <point x="672.0" y="759.044776119"/>
      <point x="672" y="768" type="qcurve" smooth="yes"/>
      <point x="672.0" y="801.582089552"/>
      <point x="622.76119403" y="846.0"/>
      <point x="575" y="846" type="qcurve" smooth="yes"/>
      <point x="507.835820896" y="846.0"/>
      <point x="356.208955224" y="803.52238806"/>
      <point x="248" y="758" type="qcurve"/>
      <point x="186" y="997" type="line"/>
      <point x="317.343283582" y="1059.68656716"/>
      <point x="567.134328358" y="1122.0"/>
    </contour>
    <contour>
      <point x="549" y="248" type="qcurve"/>
      <point x="616" y="516" type="line"/>
      <point x="468.23880597" y="494.358208955"/>
      <point x="356.0" y="382.955223881"/>
      <point x="356" y="324" type="qcurve" smooth="yes"/>
      <point x="356.0" y="276.23880597"/>
      <point x="406.28358209" y="225.0"/>
      <point x="463" y="225" type="qcurve" smooth="yes"/>
      <point x="482.402985075" y="225.0"/>
      <point x="524.373134328" y="236.805970149"/>
    </contour>
  </outline>
</glyph>
